ISO-10303-21;
HEADER;
/* Generated by software containing ST-Developer
 * from STEP Tools, Inc. (www.steptools.com) 
 */

FILE_DESCRIPTION(
/* description */ (''),
/* implementation_level */ '2;1');

FILE_NAME(
/* name */ 'LD2410B_Mount_Body_v3.step',
/* time_stamp */ '2026-08-09T15:27:42+01:00',
/* author */ (''),
/* organization */ (''),
/* preprocessor_version */ 'ST-DEVELOPER v20.1',
/* originating_system */ 'Autodesk Translation Framework v15.8.0.0',
/* authorisation */ '');

FILE_SCHEMA (('AUTOMOTIVE_DESIGN { 1 0 10303 214 3 1 1 }'));
ENDSEC;

DATA;
#10=MECHANICAL_DESIGN_GEOMETRIC_PRESENTATION_REPRESENTATION('',(#13),#853);
#11=SHAPE_REPRESENTATION_RELATIONSHIP('SRR','None',#860,#12);
#12=ADVANCED_BREP_SHAPE_REPRESENTATION('',(#14),#852);
#13=STYLED_ITEM('',(#869),#14);
#14=MANIFOLD_SOLID_BREP('Body1',#533);
#15=FACE_BOUND('',#69,.T.);
#16=FACE_OUTER_BOUND('',#43,.T.);
#17=FACE_OUTER_BOUND('',#44,.T.);
#18=FACE_OUTER_BOUND('',#45,.T.);
#19=FACE_OUTER_BOUND('',#46,.T.);
#20=FACE_OUTER_BOUND('',#47,.T.);
#21=FACE_OUTER_BOUND('',#48,.T.);
#22=FACE_OUTER_BOUND('',#49,.T.);
#23=FACE_OUTER_BOUND('',#50,.T.);
#24=FACE_OUTER_BOUND('',#51,.T.);
#25=FACE_OUTER_BOUND('',#52,.T.);
#26=FACE_OUTER_BOUND('',#53,.T.);
#27=FACE_OUTER_BOUND('',#54,.T.);
#28=FACE_OUTER_BOUND('',#55,.T.);
#29=FACE_OUTER_BOUND('',#56,.T.);
#30=FACE_OUTER_BOUND('',#57,.T.);
#31=FACE_OUTER_BOUND('',#58,.T.);
#32=FACE_OUTER_BOUND('',#59,.T.);
#33=FACE_OUTER_BOUND('',#60,.T.);
#34=FACE_OUTER_BOUND('',#61,.T.);
#35=FACE_OUTER_BOUND('',#62,.T.);
#36=FACE_OUTER_BOUND('',#63,.T.);
#37=FACE_OUTER_BOUND('',#64,.T.);
#38=FACE_OUTER_BOUND('',#65,.T.);
#39=FACE_OUTER_BOUND('',#66,.T.);
#40=FACE_OUTER_BOUND('',#67,.T.);
#41=FACE_OUTER_BOUND('',#68,.T.);
#42=FACE_OUTER_BOUND('',#70,.T.);
#43=EDGE_LOOP('',(#335,#336,#337,#338));
#44=EDGE_LOOP('',(#339,#340,#341,#342));
#45=EDGE_LOOP('',(#343,#344,#345,#346));
#46=EDGE_LOOP('',(#347,#348,#349,#350));
#47=EDGE_LOOP('',(#351,#352,#353,#354));
#48=EDGE_LOOP('',(#355,#356,#357,#358));
#49=EDGE_LOOP('',(#359,#360,#361,#362));
#50=EDGE_LOOP('',(#363,#364,#365,#366));
#51=EDGE_LOOP('',(#367,#368,#369,#370));
#52=EDGE_LOOP('',(#371,#372,#373,#374));
#53=EDGE_LOOP('',(#375,#376,#377,#378,#379,#380,#381,#382,#383,#384,#385,
#386));
#54=EDGE_LOOP('',(#387,#388,#389,#390));
#55=EDGE_LOOP('',(#391,#392,#393,#394));
#56=EDGE_LOOP('',(#395,#396,#397,#398));
#57=EDGE_LOOP('',(#399,#400,#401,#402));
#58=EDGE_LOOP('',(#403,#404,#405,#406));
#59=EDGE_LOOP('',(#407,#408,#409,#410));
#60=EDGE_LOOP('',(#411,#412,#413,#414));
#61=EDGE_LOOP('',(#415,#416,#417,#418));
#62=EDGE_LOOP('',(#419,#420,#421,#422));
#63=EDGE_LOOP('',(#423,#424,#425,#426));
#64=EDGE_LOOP('',(#427,#428,#429,#430));
#65=EDGE_LOOP('',(#431,#432,#433,#434));
#66=EDGE_LOOP('',(#435,#436,#437,#438,#439,#440,#441,#442,#443,#444,#445,
#446));
#67=EDGE_LOOP('',(#447,#448,#449,#450,#451,#452,#453,#454));
#68=EDGE_LOOP('',(#455,#456,#457,#458,#459,#460,#461,#462));
#69=EDGE_LOOP('',(#463,#464,#465,#466,#467,#468,#469,#470,#471,#472,#473,
#474));
#70=EDGE_LOOP('',(#475,#476,#477,#478));
#71=LINE('',#706,#143);
#72=LINE('',#708,#144);
#73=LINE('',#710,#145);
#74=LINE('',#711,#146);
#75=LINE('',#714,#147);
#76=LINE('',#716,#148);
#77=LINE('',#717,#149);
#78=LINE('',#721,#150);
#79=LINE('',#723,#151);
#80=LINE('',#725,#152);
#81=LINE('',#726,#153);
#82=LINE('',#729,#154);
#83=LINE('',#731,#155);
#84=LINE('',#732,#156);
#85=LINE('',#735,#157);
#86=LINE('',#737,#158);
#87=LINE('',#738,#159);
#88=LINE('',#742,#160);
#89=LINE('',#744,#161);
#90=LINE('',#746,#162);
#91=LINE('',#747,#163);
#92=LINE('',#750,#164);
#93=LINE('',#752,#165);
#94=LINE('',#753,#166);
#95=LINE('',#756,#167);
#96=LINE('',#758,#168);
#97=LINE('',#759,#169);
#98=LINE('',#762,#170);
#99=LINE('',#764,#171);
#100=LINE('',#765,#172);
#101=LINE('',#767,#173);
#102=LINE('',#768,#174);
#103=LINE('',#770,#175);
#104=LINE('',#771,#176);
#105=LINE('',#775,#177);
#106=LINE('',#777,#178);
#107=LINE('',#779,#179);
#108=LINE('',#780,#180);
#109=LINE('',#783,#181);
#110=LINE('',#785,#182);
#111=LINE('',#786,#183);
#112=LINE('',#789,#184);
#113=LINE('',#791,#185);
#114=LINE('',#792,#186);
#115=LINE('',#795,#187);
#116=LINE('',#797,#188);
#117=LINE('',#798,#189);
#118=LINE('',#801,#190);
#119=LINE('',#803,#191);
#120=LINE('',#804,#192);
#121=LINE('',#807,#193);
#122=LINE('',#809,#194);
#123=LINE('',#810,#195);
#124=LINE('',#813,#196);
#125=LINE('',#815,#197);
#126=LINE('',#816,#198);
#127=LINE('',#819,#199);
#128=LINE('',#821,#200);
#129=LINE('',#822,#201);
#130=LINE('',#825,#202);
#131=LINE('',#827,#203);
#132=LINE('',#828,#204);
#133=LINE('',#831,#205);
#134=LINE('',#833,#206);
#135=LINE('',#834,#207);
#136=LINE('',#837,#208);
#137=LINE('',#839,#209);
#138=LINE('',#840,#210);
#139=LINE('',#842,#211);
#140=LINE('',#843,#212);
#141=LINE('',#846,#213);
#142=LINE('',#847,#214);
#143=VECTOR('',#578,10.);
#144=VECTOR('',#579,10.);
#145=VECTOR('',#580,10.);
#146=VECTOR('',#581,10.);
#147=VECTOR('',#584,10.);
#148=VECTOR('',#585,10.);
#149=VECTOR('',#586,10.);
#150=VECTOR('',#589,10.);
#151=VECTOR('',#590,10.);
#152=VECTOR('',#591,10.);
#153=VECTOR('',#592,10.);
#154=VECTOR('',#595,10.);
#155=VECTOR('',#596,10.);
#156=VECTOR('',#597,10.);
#157=VECTOR('',#600,10.);
#158=VECTOR('',#601,10.);
#159=VECTOR('',#602,10.);
#160=VECTOR('',#605,10.);
#161=VECTOR('',#606,10.);
#162=VECTOR('',#607,10.);
#163=VECTOR('',#608,10.);
#164=VECTOR('',#611,10.);
#165=VECTOR('',#612,10.);
#166=VECTOR('',#613,10.);
#167=VECTOR('',#616,10.);
#168=VECTOR('',#617,10.);
#169=VECTOR('',#618,10.);
#170=VECTOR('',#621,10.);
#171=VECTOR('',#622,10.);
#172=VECTOR('',#623,10.);
#173=VECTOR('',#626,10.);
#174=VECTOR('',#627,10.);
#175=VECTOR('',#630,10.);
#176=VECTOR('',#631,10.);
#177=VECTOR('',#634,10.);
#178=VECTOR('',#635,10.);
#179=VECTOR('',#636,10.);
#180=VECTOR('',#637,10.);
#181=VECTOR('',#640,10.);
#182=VECTOR('',#641,10.);
#183=VECTOR('',#642,10.);
#184=VECTOR('',#645,10.);
#185=VECTOR('',#646,10.);
#186=VECTOR('',#647,10.);
#187=VECTOR('',#650,10.);
#188=VECTOR('',#651,10.);
#189=VECTOR('',#652,10.);
#190=VECTOR('',#655,10.);
#191=VECTOR('',#656,10.);
#192=VECTOR('',#657,10.);
#193=VECTOR('',#660,10.);
#194=VECTOR('',#661,10.);
#195=VECTOR('',#662,10.);
#196=VECTOR('',#665,10.);
#197=VECTOR('',#666,10.);
#198=VECTOR('',#667,10.);
#199=VECTOR('',#670,10.);
#200=VECTOR('',#671,10.);
#201=VECTOR('',#672,10.);
#202=VECTOR('',#675,10.);
#203=VECTOR('',#676,10.);
#204=VECTOR('',#677,10.);
#205=VECTOR('',#680,10.);
#206=VECTOR('',#681,10.);
#207=VECTOR('',#682,10.);
#208=VECTOR('',#685,10.);
#209=VECTOR('',#686,10.);
#210=VECTOR('',#687,10.);
#211=VECTOR('',#690,10.);
#212=VECTOR('',#691,10.);
#213=VECTOR('',#696,10.);
#214=VECTOR('',#697,10.);
#215=VERTEX_POINT('',#704);
#216=VERTEX_POINT('',#705);
#217=VERTEX_POINT('',#707);
#218=VERTEX_POINT('',#709);
#219=VERTEX_POINT('',#713);
#220=VERTEX_POINT('',#715);
#221=VERTEX_POINT('',#719);
#222=VERTEX_POINT('',#720);
#223=VERTEX_POINT('',#722);
#224=VERTEX_POINT('',#724);
#225=VERTEX_POINT('',#728);
#226=VERTEX_POINT('',#730);
#227=VERTEX_POINT('',#734);
#228=VERTEX_POINT('',#736);
#229=VERTEX_POINT('',#740);
#230=VERTEX_POINT('',#741);
#231=VERTEX_POINT('',#743);
#232=VERTEX_POINT('',#745);
#233=VERTEX_POINT('',#749);
#234=VERTEX_POINT('',#751);
#235=VERTEX_POINT('',#755);
#236=VERTEX_POINT('',#757);
#237=VERTEX_POINT('',#761);
#238=VERTEX_POINT('',#763);
#239=VERTEX_POINT('',#773);
#240=VERTEX_POINT('',#774);
#241=VERTEX_POINT('',#776);
#242=VERTEX_POINT('',#778);
#243=VERTEX_POINT('',#782);
#244=VERTEX_POINT('',#784);
#245=VERTEX_POINT('',#788);
#246=VERTEX_POINT('',#790);
#247=VERTEX_POINT('',#794);
#248=VERTEX_POINT('',#796);
#249=VERTEX_POINT('',#800);
#250=VERTEX_POINT('',#802);
#251=VERTEX_POINT('',#806);
#252=VERTEX_POINT('',#808);
#253=VERTEX_POINT('',#812);
#254=VERTEX_POINT('',#814);
#255=VERTEX_POINT('',#818);
#256=VERTEX_POINT('',#820);
#257=VERTEX_POINT('',#824);
#258=VERTEX_POINT('',#826);
#259=VERTEX_POINT('',#830);
#260=VERTEX_POINT('',#832);
#261=VERTEX_POINT('',#836);
#262=VERTEX_POINT('',#838);
#263=EDGE_CURVE('',#215,#216,#71,.T.);
#264=EDGE_CURVE('',#215,#217,#72,.T.);
#265=EDGE_CURVE('',#218,#217,#73,.T.);
#266=EDGE_CURVE('',#216,#218,#74,.T.);
#267=EDGE_CURVE('',#219,#215,#75,.T.);
#268=EDGE_CURVE('',#219,#220,#76,.T.);
#269=EDGE_CURVE('',#217,#220,#77,.T.);
#270=EDGE_CURVE('',#221,#222,#78,.T.);
#271=EDGE_CURVE('',#221,#223,#79,.T.);
#272=EDGE_CURVE('',#224,#223,#80,.T.);
#273=EDGE_CURVE('',#222,#224,#81,.T.);
#274=EDGE_CURVE('',#222,#225,#82,.T.);
#275=EDGE_CURVE('',#226,#224,#83,.T.);
#276=EDGE_CURVE('',#225,#226,#84,.T.);
#277=EDGE_CURVE('',#225,#227,#85,.T.);
#278=EDGE_CURVE('',#228,#226,#86,.T.);
#279=EDGE_CURVE('',#227,#228,#87,.T.);
#280=EDGE_CURVE('',#229,#230,#88,.T.);
#281=EDGE_CURVE('',#229,#231,#89,.T.);
#282=EDGE_CURVE('',#232,#231,#90,.T.);
#283=EDGE_CURVE('',#230,#232,#91,.T.);
#284=EDGE_CURVE('',#230,#233,#92,.T.);
#285=EDGE_CURVE('',#234,#232,#93,.T.);
#286=EDGE_CURVE('',#233,#234,#94,.T.);
#287=EDGE_CURVE('',#233,#235,#95,.T.);
#288=EDGE_CURVE('',#236,#234,#96,.T.);
#289=EDGE_CURVE('',#235,#236,#97,.T.);
#290=EDGE_CURVE('',#235,#237,#98,.T.);
#291=EDGE_CURVE('',#238,#236,#99,.T.);
#292=EDGE_CURVE('',#237,#238,#100,.T.);
#293=EDGE_CURVE('',#237,#219,#101,.T.);
#294=EDGE_CURVE('',#220,#238,#102,.T.);
#295=EDGE_CURVE('',#231,#228,#103,.T.);
#296=EDGE_CURVE('',#223,#218,#104,.T.);
#297=EDGE_CURVE('',#239,#240,#105,.T.);
#298=EDGE_CURVE('',#239,#241,#106,.T.);
#299=EDGE_CURVE('',#242,#241,#107,.T.);
#300=EDGE_CURVE('',#240,#242,#108,.T.);
#301=EDGE_CURVE('',#243,#239,#109,.T.);
#302=EDGE_CURVE('',#243,#244,#110,.T.);
#303=EDGE_CURVE('',#241,#244,#111,.T.);
#304=EDGE_CURVE('',#245,#243,#112,.T.);
#305=EDGE_CURVE('',#245,#246,#113,.T.);
#306=EDGE_CURVE('',#244,#246,#114,.T.);
#307=EDGE_CURVE('',#247,#245,#115,.T.);
#308=EDGE_CURVE('',#247,#248,#116,.T.);
#309=EDGE_CURVE('',#246,#248,#117,.T.);
#310=EDGE_CURVE('',#249,#247,#118,.T.);
#311=EDGE_CURVE('',#249,#250,#119,.T.);
#312=EDGE_CURVE('',#248,#250,#120,.T.);
#313=EDGE_CURVE('',#251,#249,#121,.T.);
#314=EDGE_CURVE('',#251,#252,#122,.T.);
#315=EDGE_CURVE('',#250,#252,#123,.T.);
#316=EDGE_CURVE('',#240,#253,#124,.T.);
#317=EDGE_CURVE('',#254,#242,#125,.T.);
#318=EDGE_CURVE('',#253,#254,#126,.T.);
#319=EDGE_CURVE('',#253,#255,#127,.T.);
#320=EDGE_CURVE('',#256,#254,#128,.T.);
#321=EDGE_CURVE('',#255,#256,#129,.T.);
#322=EDGE_CURVE('',#255,#257,#130,.T.);
#323=EDGE_CURVE('',#258,#256,#131,.T.);
#324=EDGE_CURVE('',#257,#258,#132,.T.);
#325=EDGE_CURVE('',#257,#259,#133,.T.);
#326=EDGE_CURVE('',#260,#258,#134,.T.);
#327=EDGE_CURVE('',#259,#260,#135,.T.);
#328=EDGE_CURVE('',#259,#261,#136,.T.);
#329=EDGE_CURVE('',#262,#260,#137,.T.);
#330=EDGE_CURVE('',#261,#262,#138,.T.);
#331=EDGE_CURVE('',#261,#251,#139,.T.);
#332=EDGE_CURVE('',#252,#262,#140,.T.);
#333=EDGE_CURVE('',#227,#221,#141,.T.);
#334=EDGE_CURVE('',#216,#229,#142,.T.);
#335=ORIENTED_EDGE('',*,*,#263,.F.);
#336=ORIENTED_EDGE('',*,*,#264,.T.);
#337=ORIENTED_EDGE('',*,*,#265,.F.);
#338=ORIENTED_EDGE('',*,*,#266,.F.);
#339=ORIENTED_EDGE('',*,*,#267,.F.);
#340=ORIENTED_EDGE('',*,*,#268,.T.);
#341=ORIENTED_EDGE('',*,*,#269,.F.);
#342=ORIENTED_EDGE('',*,*,#264,.F.);
#343=ORIENTED_EDGE('',*,*,#270,.F.);
#344=ORIENTED_EDGE('',*,*,#271,.T.);
#345=ORIENTED_EDGE('',*,*,#272,.F.);
#346=ORIENTED_EDGE('',*,*,#273,.F.);
#347=ORIENTED_EDGE('',*,*,#274,.F.);
#348=ORIENTED_EDGE('',*,*,#273,.T.);
#349=ORIENTED_EDGE('',*,*,#275,.F.);
#350=ORIENTED_EDGE('',*,*,#276,.F.);
#351=ORIENTED_EDGE('',*,*,#277,.F.);
#352=ORIENTED_EDGE('',*,*,#276,.T.);
#353=ORIENTED_EDGE('',*,*,#278,.F.);
#354=ORIENTED_EDGE('',*,*,#279,.F.);
#355=ORIENTED_EDGE('',*,*,#280,.F.);
#356=ORIENTED_EDGE('',*,*,#281,.T.);
#357=ORIENTED_EDGE('',*,*,#282,.F.);
#358=ORIENTED_EDGE('',*,*,#283,.F.);
#359=ORIENTED_EDGE('',*,*,#284,.F.);
#360=ORIENTED_EDGE('',*,*,#283,.T.);
#361=ORIENTED_EDGE('',*,*,#285,.F.);
#362=ORIENTED_EDGE('',*,*,#286,.F.);
#363=ORIENTED_EDGE('',*,*,#287,.F.);
#364=ORIENTED_EDGE('',*,*,#286,.T.);
#365=ORIENTED_EDGE('',*,*,#288,.F.);
#366=ORIENTED_EDGE('',*,*,#289,.F.);
#367=ORIENTED_EDGE('',*,*,#290,.F.);
#368=ORIENTED_EDGE('',*,*,#289,.T.);
#369=ORIENTED_EDGE('',*,*,#291,.F.);
#370=ORIENTED_EDGE('',*,*,#292,.F.);
#371=ORIENTED_EDGE('',*,*,#293,.F.);
#372=ORIENTED_EDGE('',*,*,#292,.T.);
#373=ORIENTED_EDGE('',*,*,#294,.F.);
#374=ORIENTED_EDGE('',*,*,#268,.F.);
#375=ORIENTED_EDGE('',*,*,#269,.T.);
#376=ORIENTED_EDGE('',*,*,#294,.T.);
#377=ORIENTED_EDGE('',*,*,#291,.T.);
#378=ORIENTED_EDGE('',*,*,#288,.T.);
#379=ORIENTED_EDGE('',*,*,#285,.T.);
#380=ORIENTED_EDGE('',*,*,#282,.T.);
#381=ORIENTED_EDGE('',*,*,#295,.T.);
#382=ORIENTED_EDGE('',*,*,#278,.T.);
#383=ORIENTED_EDGE('',*,*,#275,.T.);
#384=ORIENTED_EDGE('',*,*,#272,.T.);
#385=ORIENTED_EDGE('',*,*,#296,.T.);
#386=ORIENTED_EDGE('',*,*,#265,.T.);
#387=ORIENTED_EDGE('',*,*,#297,.F.);
#388=ORIENTED_EDGE('',*,*,#298,.T.);
#389=ORIENTED_EDGE('',*,*,#299,.F.);
#390=ORIENTED_EDGE('',*,*,#300,.F.);
#391=ORIENTED_EDGE('',*,*,#301,.F.);
#392=ORIENTED_EDGE('',*,*,#302,.T.);
#393=ORIENTED_EDGE('',*,*,#303,.F.);
#394=ORIENTED_EDGE('',*,*,#298,.F.);
#395=ORIENTED_EDGE('',*,*,#304,.F.);
#396=ORIENTED_EDGE('',*,*,#305,.T.);
#397=ORIENTED_EDGE('',*,*,#306,.F.);
#398=ORIENTED_EDGE('',*,*,#302,.F.);
#399=ORIENTED_EDGE('',*,*,#307,.F.);
#400=ORIENTED_EDGE('',*,*,#308,.T.);
#401=ORIENTED_EDGE('',*,*,#309,.F.);
#402=ORIENTED_EDGE('',*,*,#305,.F.);
#403=ORIENTED_EDGE('',*,*,#310,.F.);
#404=ORIENTED_EDGE('',*,*,#311,.T.);
#405=ORIENTED_EDGE('',*,*,#312,.F.);
#406=ORIENTED_EDGE('',*,*,#308,.F.);
#407=ORIENTED_EDGE('',*,*,#313,.F.);
#408=ORIENTED_EDGE('',*,*,#314,.T.);
#409=ORIENTED_EDGE('',*,*,#315,.F.);
#410=ORIENTED_EDGE('',*,*,#311,.F.);
#411=ORIENTED_EDGE('',*,*,#316,.F.);
#412=ORIENTED_EDGE('',*,*,#300,.T.);
#413=ORIENTED_EDGE('',*,*,#317,.F.);
#414=ORIENTED_EDGE('',*,*,#318,.F.);
#415=ORIENTED_EDGE('',*,*,#319,.F.);
#416=ORIENTED_EDGE('',*,*,#318,.T.);
#417=ORIENTED_EDGE('',*,*,#320,.F.);
#418=ORIENTED_EDGE('',*,*,#321,.F.);
#419=ORIENTED_EDGE('',*,*,#322,.F.);
#420=ORIENTED_EDGE('',*,*,#321,.T.);
#421=ORIENTED_EDGE('',*,*,#323,.F.);
#422=ORIENTED_EDGE('',*,*,#324,.F.);
#423=ORIENTED_EDGE('',*,*,#325,.F.);
#424=ORIENTED_EDGE('',*,*,#324,.T.);
#425=ORIENTED_EDGE('',*,*,#326,.F.);
#426=ORIENTED_EDGE('',*,*,#327,.F.);
#427=ORIENTED_EDGE('',*,*,#328,.F.);
#428=ORIENTED_EDGE('',*,*,#327,.T.);
#429=ORIENTED_EDGE('',*,*,#329,.F.);
#430=ORIENTED_EDGE('',*,*,#330,.F.);
#431=ORIENTED_EDGE('',*,*,#331,.F.);
#432=ORIENTED_EDGE('',*,*,#330,.T.);
#433=ORIENTED_EDGE('',*,*,#332,.F.);
#434=ORIENTED_EDGE('',*,*,#314,.F.);
#435=ORIENTED_EDGE('',*,*,#315,.T.);
#436=ORIENTED_EDGE('',*,*,#332,.T.);
#437=ORIENTED_EDGE('',*,*,#329,.T.);
#438=ORIENTED_EDGE('',*,*,#326,.T.);
#439=ORIENTED_EDGE('',*,*,#323,.T.);
#440=ORIENTED_EDGE('',*,*,#320,.T.);
#441=ORIENTED_EDGE('',*,*,#317,.T.);
#442=ORIENTED_EDGE('',*,*,#299,.T.);
#443=ORIENTED_EDGE('',*,*,#303,.T.);
#444=ORIENTED_EDGE('',*,*,#306,.T.);
#445=ORIENTED_EDGE('',*,*,#309,.T.);
#446=ORIENTED_EDGE('',*,*,#312,.T.);
#447=ORIENTED_EDGE('',*,*,#333,.F.);
#448=ORIENTED_EDGE('',*,*,#279,.T.);
#449=ORIENTED_EDGE('',*,*,#295,.F.);
#450=ORIENTED_EDGE('',*,*,#281,.F.);
#451=ORIENTED_EDGE('',*,*,#334,.F.);
#452=ORIENTED_EDGE('',*,*,#266,.T.);
#453=ORIENTED_EDGE('',*,*,#296,.F.);
#454=ORIENTED_EDGE('',*,*,#271,.F.);
#455=ORIENTED_EDGE('',*,*,#263,.T.);
#456=ORIENTED_EDGE('',*,*,#334,.T.);
#457=ORIENTED_EDGE('',*,*,#280,.T.);
#458=ORIENTED_EDGE('',*,*,#284,.T.);
#459=ORIENTED_EDGE('',*,*,#287,.T.);
#460=ORIENTED_EDGE('',*,*,#290,.T.);
#461=ORIENTED_EDGE('',*,*,#293,.T.);
#462=ORIENTED_EDGE('',*,*,#267,.T.);
#463=ORIENTED_EDGE('',*,*,#313,.T.);
#464=ORIENTED_EDGE('',*,*,#310,.T.);
#465=ORIENTED_EDGE('',*,*,#307,.T.);
#466=ORIENTED_EDGE('',*,*,#304,.T.);
#467=ORIENTED_EDGE('',*,*,#301,.T.);
#468=ORIENTED_EDGE('',*,*,#297,.T.);
#469=ORIENTED_EDGE('',*,*,#316,.T.);
#470=ORIENTED_EDGE('',*,*,#319,.T.);
#471=ORIENTED_EDGE('',*,*,#322,.T.);
#472=ORIENTED_EDGE('',*,*,#325,.T.);
#473=ORIENTED_EDGE('',*,*,#328,.T.);
#474=ORIENTED_EDGE('',*,*,#331,.T.);
#475=ORIENTED_EDGE('',*,*,#333,.T.);
#476=ORIENTED_EDGE('',*,*,#270,.T.);
#477=ORIENTED_EDGE('',*,*,#274,.T.);
#478=ORIENTED_EDGE('',*,*,#277,.T.);
#479=PLANE('',#547);
#480=PLANE('',#548);
#481=PLANE('',#549);
#482=PLANE('',#550);
#483=PLANE('',#551);
#484=PLANE('',#552);
#485=PLANE('',#553);
#486=PLANE('',#554);
#487=PLANE('',#555);
#488=PLANE('',#556);
#489=PLANE('',#557);
#490=PLANE('',#558);
#491=PLANE('',#559);
#492=PLANE('',#560);
#493=PLANE('',#561);
#494=PLANE('',#562);
#495=PLANE('',#563);
#496=PLANE('',#564);
#497=PLANE('',#565);
#498=PLANE('',#566);
#499=PLANE('',#567);
#500=PLANE('',#568);
#501=PLANE('',#569);
#502=PLANE('',#570);
#503=PLANE('',#571);
#504=PLANE('',#572);
#505=PLANE('',#573);
#506=ADVANCED_FACE('',(#16),#479,.T.);
#507=ADVANCED_FACE('',(#17),#480,.T.);
#508=ADVANCED_FACE('',(#18),#481,.T.);
#509=ADVANCED_FACE('',(#19),#482,.T.);
#510=ADVANCED_FACE('',(#20),#483,.T.);
#511=ADVANCED_FACE('',(#21),#484,.T.);
#512=ADVANCED_FACE('',(#22),#485,.T.);
#513=ADVANCED_FACE('',(#23),#486,.T.);
#514=ADVANCED_FACE('',(#24),#487,.T.);
#515=ADVANCED_FACE('',(#25),#488,.T.);
#516=ADVANCED_FACE('',(#26),#489,.T.);
#517=ADVANCED_FACE('',(#27),#490,.T.);
#518=ADVANCED_FACE('',(#28),#491,.T.);
#519=ADVANCED_FACE('',(#29),#492,.T.);
#520=ADVANCED_FACE('',(#30),#493,.T.);
#521=ADVANCED_FACE('',(#31),#494,.T.);
#522=ADVANCED_FACE('',(#32),#495,.T.);
#523=ADVANCED_FACE('',(#33),#496,.T.);
#524=ADVANCED_FACE('',(#34),#497,.T.);
#525=ADVANCED_FACE('',(#35),#498,.T.);
#526=ADVANCED_FACE('',(#36),#499,.T.);
#527=ADVANCED_FACE('',(#37),#500,.T.);
#528=ADVANCED_FACE('',(#38),#501,.T.);
#529=ADVANCED_FACE('',(#39),#502,.T.);
#530=ADVANCED_FACE('',(#40),#503,.T.);
#531=ADVANCED_FACE('',(#41,#15),#504,.T.);
#532=ADVANCED_FACE('',(#42),#505,.F.);
#533=CLOSED_SHELL('',(#506,#507,#508,#509,#510,#511,#512,#513,#514,#515,
#516,#517,#518,#519,#520,#521,#522,#523,#524,#525,#526,#527,#528,#529,#530,
#531,#532));
#534=DERIVED_UNIT_ELEMENT(#536,1.);
#535=DERIVED_UNIT_ELEMENT(#855,-3.);
#536=(
MASS_UNIT()
NAMED_UNIT(*)
SI_UNIT(.KILO.,.GRAM.)
);
#537=DERIVED_UNIT((#534,#535));
#538=MEASURE_REPRESENTATION_ITEM('density measure',
POSITIVE_RATIO_MEASURE(7850.),#537);
#539=PROPERTY_DEFINITION_REPRESENTATION(#544,#541);
#540=PROPERTY_DEFINITION_REPRESENTATION(#545,#542);
#541=REPRESENTATION('material name',(#543),#852);
#542=REPRESENTATION('density',(#538),#852);
#543=DESCRIPTIVE_REPRESENTATION_ITEM('Steel','Steel');
#544=PROPERTY_DEFINITION('material property','material name',#862);
#545=PROPERTY_DEFINITION('material property','density of part',#862);
#546=AXIS2_PLACEMENT_3D('',#702,#574,#575);
#547=AXIS2_PLACEMENT_3D('',#703,#576,#577);
#548=AXIS2_PLACEMENT_3D('',#712,#582,#583);
#549=AXIS2_PLACEMENT_3D('',#718,#587,#588);
#550=AXIS2_PLACEMENT_3D('',#727,#593,#594);
#551=AXIS2_PLACEMENT_3D('',#733,#598,#599);
#552=AXIS2_PLACEMENT_3D('',#739,#603,#604);
#553=AXIS2_PLACEMENT_3D('',#748,#609,#610);
#554=AXIS2_PLACEMENT_3D('',#754,#614,#615);
#555=AXIS2_PLACEMENT_3D('',#760,#619,#620);
#556=AXIS2_PLACEMENT_3D('',#766,#624,#625);
#557=AXIS2_PLACEMENT_3D('',#769,#628,#629);
#558=AXIS2_PLACEMENT_3D('',#772,#632,#633);
#559=AXIS2_PLACEMENT_3D('',#781,#638,#639);
#560=AXIS2_PLACEMENT_3D('',#787,#643,#644);
#561=AXIS2_PLACEMENT_3D('',#793,#648,#649);
#562=AXIS2_PLACEMENT_3D('',#799,#653,#654);
#563=AXIS2_PLACEMENT_3D('',#805,#658,#659);
#564=AXIS2_PLACEMENT_3D('',#811,#663,#664);
#565=AXIS2_PLACEMENT_3D('',#817,#668,#669);
#566=AXIS2_PLACEMENT_3D('',#823,#673,#674);
#567=AXIS2_PLACEMENT_3D('',#829,#678,#679);
#568=AXIS2_PLACEMENT_3D('',#835,#683,#684);
#569=AXIS2_PLACEMENT_3D('',#841,#688,#689);
#570=AXIS2_PLACEMENT_3D('',#844,#692,#693);
#571=AXIS2_PLACEMENT_3D('',#845,#694,#695);
#572=AXIS2_PLACEMENT_3D('',#848,#698,#699);
#573=AXIS2_PLACEMENT_3D('',#849,#700,#701);
#574=DIRECTION('axis',(0.,0.,1.));
#575=DIRECTION('refdir',(1.,0.,0.));
#576=DIRECTION('center_axis',(0.,0.,-1.));
#577=DIRECTION('ref_axis',(-1.,0.,0.));
#578=DIRECTION('',(1.,0.,0.));
#579=DIRECTION('',(0.,1.,0.));
#580=DIRECTION('',(-1.,0.,0.));
#581=DIRECTION('',(0.,1.,0.));
#582=DIRECTION('center_axis',(-1.,0.,0.));
#583=DIRECTION('ref_axis',(0.,0.,1.));
#584=DIRECTION('',(0.,0.,-1.));
#585=DIRECTION('',(0.,1.,0.));
#586=DIRECTION('',(0.,0.,1.));
#587=DIRECTION('center_axis',(0.,0.,1.));
#588=DIRECTION('ref_axis',(1.,0.,0.));
#589=DIRECTION('',(-1.,0.,0.));
#590=DIRECTION('',(0.,1.,0.));
#591=DIRECTION('',(1.,0.,0.));
#592=DIRECTION('',(0.,1.,0.));
#593=DIRECTION('center_axis',(-1.,0.,0.));
#594=DIRECTION('ref_axis',(0.,0.,1.));
#595=DIRECTION('',(0.,0.,-1.));
#596=DIRECTION('',(0.,0.,1.));
#597=DIRECTION('',(0.,1.,0.));
#598=DIRECTION('center_axis',(0.,0.,-1.));
#599=DIRECTION('ref_axis',(-1.,0.,0.));
#600=DIRECTION('',(1.,0.,0.));
#601=DIRECTION('',(-1.,0.,0.));
#602=DIRECTION('',(0.,1.,0.));
#603=DIRECTION('center_axis',(0.,0.,1.));
#604=DIRECTION('ref_axis',(1.,0.,0.));
#605=DIRECTION('',(-1.,0.,0.));
#606=DIRECTION('',(0.,1.,0.));
#607=DIRECTION('',(1.,0.,0.));
#608=DIRECTION('',(0.,1.,0.));
#609=DIRECTION('center_axis',(-1.,0.,0.));
#610=DIRECTION('ref_axis',(0.,0.,1.));
#611=DIRECTION('',(0.,0.,-1.));
#612=DIRECTION('',(0.,0.,1.));
#613=DIRECTION('',(0.,1.,0.));
#614=DIRECTION('center_axis',(0.,0.,1.));
#615=DIRECTION('ref_axis',(1.,0.,0.));
#616=DIRECTION('',(-1.,0.,0.));
#617=DIRECTION('',(1.,0.,0.));
#618=DIRECTION('',(0.,1.,0.));
#619=DIRECTION('center_axis',(1.,0.,0.));
#620=DIRECTION('ref_axis',(0.,0.,-1.));
#621=DIRECTION('',(0.,0.,1.));
#622=DIRECTION('',(0.,0.,-1.));
#623=DIRECTION('',(0.,1.,0.));
#624=DIRECTION('center_axis',(0.,0.,-1.));
#625=DIRECTION('ref_axis',(-1.,0.,0.));
#626=DIRECTION('',(1.,0.,0.));
#627=DIRECTION('',(-1.,0.,0.));
#628=DIRECTION('center_axis',(0.,1.,0.));
#629=DIRECTION('ref_axis',(0.,0.,1.));
#630=DIRECTION('',(0.,0.,-1.));
#631=DIRECTION('',(0.,0.,-1.));
#632=DIRECTION('center_axis',(-1.,0.,0.));
#633=DIRECTION('ref_axis',(0.,0.,1.));
#634=DIRECTION('',(0.,0.,-1.));
#635=DIRECTION('',(0.,1.,0.));
#636=DIRECTION('',(0.,0.,1.));
#637=DIRECTION('',(0.,1.,0.));
#638=DIRECTION('center_axis',(0.,0.,1.));
#639=DIRECTION('ref_axis',(1.,0.,0.));
#640=DIRECTION('',(-1.,0.,0.));
#641=DIRECTION('',(0.,1.,0.));
#642=DIRECTION('',(1.,0.,0.));
#643=DIRECTION('center_axis',(1.,0.,0.));
#644=DIRECTION('ref_axis',(0.,0.,-1.));
#645=DIRECTION('',(0.,0.,1.));
#646=DIRECTION('',(0.,1.,0.));
#647=DIRECTION('',(0.,0.,-1.));
#648=DIRECTION('center_axis',(0.,0.,-1.));
#649=DIRECTION('ref_axis',(-1.,0.,0.));
#650=DIRECTION('',(1.,0.,0.));
#651=DIRECTION('',(0.,1.,0.));
#652=DIRECTION('',(-1.,0.,0.));
#653=DIRECTION('center_axis',(1.,0.,0.));
#654=DIRECTION('ref_axis',(0.,0.,-1.));
#655=DIRECTION('',(0.,0.,1.));
#656=DIRECTION('',(0.,1.,0.));
#657=DIRECTION('',(0.,0.,-1.));
#658=DIRECTION('center_axis',(0.,0.,-1.));
#659=DIRECTION('ref_axis',(-1.,0.,0.));
#660=DIRECTION('',(1.,0.,0.));
#661=DIRECTION('',(0.,1.,0.));
#662=DIRECTION('',(-1.,0.,0.));
#663=DIRECTION('center_axis',(0.,0.,-1.));
#664=DIRECTION('ref_axis',(-1.,0.,0.));
#665=DIRECTION('',(1.,0.,0.));
#666=DIRECTION('',(-1.,0.,0.));
#667=DIRECTION('',(0.,1.,0.));
#668=DIRECTION('center_axis',(1.,0.,0.));
#669=DIRECTION('ref_axis',(0.,0.,-1.));
#670=DIRECTION('',(0.,0.,1.));
#671=DIRECTION('',(0.,0.,-1.));
#672=DIRECTION('',(0.,1.,0.));
#673=DIRECTION('center_axis',(0.,0.,1.));
#674=DIRECTION('ref_axis',(1.,0.,0.));
#675=DIRECTION('',(-1.,0.,0.));
#676=DIRECTION('',(1.,0.,0.));
#677=DIRECTION('',(0.,1.,0.));
#678=DIRECTION('center_axis',(1.,0.,0.));
#679=DIRECTION('ref_axis',(0.,0.,-1.));
#680=DIRECTION('',(0.,0.,1.));
#681=DIRECTION('',(0.,0.,-1.));
#682=DIRECTION('',(0.,1.,0.));
#683=DIRECTION('center_axis',(0.,0.,1.));
#684=DIRECTION('ref_axis',(1.,0.,0.));
#685=DIRECTION('',(-1.,0.,0.));
#686=DIRECTION('',(1.,0.,0.));
#687=DIRECTION('',(0.,1.,0.));
#688=DIRECTION('center_axis',(1.,0.,0.));
#689=DIRECTION('ref_axis',(0.,0.,-1.));
#690=DIRECTION('',(0.,0.,1.));
#691=DIRECTION('',(0.,0.,-1.));
#692=DIRECTION('center_axis',(0.,1.,0.));
#693=DIRECTION('ref_axis',(0.,0.,1.));
#694=DIRECTION('center_axis',(1.,0.,0.));
#695=DIRECTION('ref_axis',(0.,0.,-1.));
#696=DIRECTION('',(0.,0.,1.));
#697=DIRECTION('',(0.,0.,-1.));
#698=DIRECTION('center_axis',(0.,1.,0.));
#699=DIRECTION('ref_axis',(0.,0.,1.));
#700=DIRECTION('center_axis',(0.,1.,0.));
#701=DIRECTION('ref_axis',(1.,0.,0.));
#702=CARTESIAN_POINT('',(0.,0.,0.));
#703=CARTESIAN_POINT('Origin',(27.,0.,-28.2088702627253));
#704=CARTESIAN_POINT('',(26.,1.6,-28.2088702627253));
#705=CARTESIAN_POINT('',(27.,1.6,-28.2088702627253));
#706=CARTESIAN_POINT('',(24.,1.6,-28.2088702627253));
#707=CARTESIAN_POINT('',(26.,5.6,-28.2088702627253));
#708=CARTESIAN_POINT('',(26.,0.,-28.2088702627253));
#709=CARTESIAN_POINT('',(27.,5.6,-28.2088702627253));
#710=CARTESIAN_POINT('',(24.,5.6,-28.2088702627253));
#711=CARTESIAN_POINT('',(27.,0.,-28.2088702627253));
#712=CARTESIAN_POINT('Origin',(26.,0.,-28.2088702627253));
#713=CARTESIAN_POINT('',(26.,1.6,-26.2088702627253));
#714=CARTESIAN_POINT('',(26.,1.6,-39.2088702627253));
#715=CARTESIAN_POINT('',(26.,5.6,-26.2088702627253));
#716=CARTESIAN_POINT('',(26.,0.,-26.2088702627253));
#717=CARTESIAN_POINT('',(26.,5.6,-39.2088702627253));
#718=CARTESIAN_POINT('Origin',(-27.,0.,-25.2088702627253));
#719=CARTESIAN_POINT('',(27.,0.,-25.2088702627253));
#720=CARTESIAN_POINT('',(-27.,0.,-25.2088702627253));
#721=CARTESIAN_POINT('',(27.,0.,-25.2088702627253));
#722=CARTESIAN_POINT('',(27.,5.6,-25.2088702627253));
#723=CARTESIAN_POINT('',(27.,0.,-25.2088702627253));
#724=CARTESIAN_POINT('',(-27.,5.6,-25.2088702627253));
#725=CARTESIAN_POINT('',(27.,5.6,-25.2088702627253));
#726=CARTESIAN_POINT('',(-27.,0.,-25.2088702627253));
#727=CARTESIAN_POINT('Origin',(-27.,0.,-40.2088702627253));
#728=CARTESIAN_POINT('',(-27.,0.,-40.2088702627253));
#729=CARTESIAN_POINT('',(-27.,0.,-25.2088702627253));
#730=CARTESIAN_POINT('',(-27.,5.6,-40.2088702627253));
#731=CARTESIAN_POINT('',(-27.,5.6,-25.2088702627253));
#732=CARTESIAN_POINT('',(-27.,0.,-40.2088702627253));
#733=CARTESIAN_POINT('Origin',(27.,0.,-40.2088702627253));
#734=CARTESIAN_POINT('',(27.,0.,-40.2088702627253));
#735=CARTESIAN_POINT('',(-27.,0.,-40.2088702627253));
#736=CARTESIAN_POINT('',(27.,5.6,-40.2088702627253));
#737=CARTESIAN_POINT('',(-27.,5.6,-40.2088702627253));
#738=CARTESIAN_POINT('',(27.,0.,-40.2088702627253));
#739=CARTESIAN_POINT('Origin',(26.,0.,-37.2088702627253));
#740=CARTESIAN_POINT('',(27.,1.6,-37.2088702627253));
#741=CARTESIAN_POINT('',(26.,1.6,-37.2088702627253));
#742=CARTESIAN_POINT('',(24.,1.6,-37.2088702627253));
#743=CARTESIAN_POINT('',(27.,5.6,-37.2088702627253));
#744=CARTESIAN_POINT('',(27.,0.,-37.2088702627253));
#745=CARTESIAN_POINT('',(26.,5.6,-37.2088702627253));
#746=CARTESIAN_POINT('',(24.,5.6,-37.2088702627253));
#747=CARTESIAN_POINT('',(26.,0.,-37.2088702627253));
#748=CARTESIAN_POINT('Origin',(26.,0.,-39.2088702627253));
#749=CARTESIAN_POINT('',(26.,1.6,-39.2088702627253));
#750=CARTESIAN_POINT('',(26.,1.6,-39.2088702627253));
#751=CARTESIAN_POINT('',(26.,5.6,-39.2088702627253));
#752=CARTESIAN_POINT('',(26.,5.6,-39.2088702627253));
#753=CARTESIAN_POINT('',(26.,0.,-39.2088702627253));
#754=CARTESIAN_POINT('Origin',(-26.,0.,-39.2088702627253));
#755=CARTESIAN_POINT('',(-26.,1.6,-39.2088702627253));
#756=CARTESIAN_POINT('',(-26.,1.6,-39.2088702627253));
#757=CARTESIAN_POINT('',(-26.,5.6,-39.2088702627253));
#758=CARTESIAN_POINT('',(-26.,5.6,-39.2088702627253));
#759=CARTESIAN_POINT('',(-26.,0.,-39.2088702627253));
#760=CARTESIAN_POINT('Origin',(-26.,0.,-26.2088702627253));
#761=CARTESIAN_POINT('',(-26.,1.6,-26.2088702627253));
#762=CARTESIAN_POINT('',(-26.,1.6,-26.2088702627253));
#763=CARTESIAN_POINT('',(-26.,5.6,-26.2088702627253));
#764=CARTESIAN_POINT('',(-26.,5.6,-26.2088702627253));
#765=CARTESIAN_POINT('',(-26.,0.,-26.2088702627253));
#766=CARTESIAN_POINT('Origin',(26.,0.,-26.2088702627253));
#767=CARTESIAN_POINT('',(26.,1.6,-26.2088702627253));
#768=CARTESIAN_POINT('',(26.,5.6,-26.2088702627253));
#769=CARTESIAN_POINT('Origin',(0.,5.6,-32.7088702627253));
#770=CARTESIAN_POINT('',(27.,5.6,-40.2088702627253));
#771=CARTESIAN_POINT('',(27.,5.6,-40.2088702627253));
#772=CARTESIAN_POINT('Origin',(-25.,0.,-38.2088702627253));
#773=CARTESIAN_POINT('',(-25.,1.6,-27.2088702627253));
#774=CARTESIAN_POINT('',(-25.,1.6,-38.2088702627253));
#775=CARTESIAN_POINT('',(-25.,1.6,-27.2088702627253));
#776=CARTESIAN_POINT('',(-25.,5.6,-27.2088702627253));
#777=CARTESIAN_POINT('',(-25.,0.,-27.2088702627253));
#778=CARTESIAN_POINT('',(-25.,5.6,-38.2088702627253));
#779=CARTESIAN_POINT('',(-25.,5.6,-27.2088702627253));
#780=CARTESIAN_POINT('',(-25.,0.,-38.2088702627253));
#781=CARTESIAN_POINT('Origin',(-25.,0.,-27.2088702627253));
#782=CARTESIAN_POINT('',(25.,1.6,-27.2088702627253));
#783=CARTESIAN_POINT('',(25.,1.6,-27.2088702627253));
#784=CARTESIAN_POINT('',(25.,5.6,-27.2088702627253));
#785=CARTESIAN_POINT('',(25.,0.,-27.2088702627253));
#786=CARTESIAN_POINT('',(25.,5.6,-27.2088702627253));
#787=CARTESIAN_POINT('Origin',(25.,0.,-27.2088702627253));
#788=CARTESIAN_POINT('',(25.,1.6,-28.2088702627253));
#789=CARTESIAN_POINT('',(25.,1.6,-38.2088702627253));
#790=CARTESIAN_POINT('',(25.,5.6,-28.2088702627253));
#791=CARTESIAN_POINT('',(25.,0.,-28.2088702627253));
#792=CARTESIAN_POINT('',(25.,5.6,-38.2088702627253));
#793=CARTESIAN_POINT('Origin',(25.,0.,-28.2088702627253));
#794=CARTESIAN_POINT('',(9.,1.6,-28.2088702627253));
#795=CARTESIAN_POINT('',(24.,1.6,-28.2088702627253));
#796=CARTESIAN_POINT('',(9.,5.6,-28.2088702627253));
#797=CARTESIAN_POINT('',(9.,0.,-28.2088702627253));
#798=CARTESIAN_POINT('',(24.,5.6,-28.2088702627253));
#799=CARTESIAN_POINT('Origin',(9.,0.,-28.2088702627253));
#800=CARTESIAN_POINT('',(9.,1.6,-29.2088702627253));
#801=CARTESIAN_POINT('',(9.,1.6,-37.2088702627253));
#802=CARTESIAN_POINT('',(9.,5.6,-29.2088702627253));
#803=CARTESIAN_POINT('',(9.,0.,-29.2088702627253));
#804=CARTESIAN_POINT('',(9.,5.6,-37.2088702627253));
#805=CARTESIAN_POINT('Origin',(9.,0.,-29.2088702627253));
#806=CARTESIAN_POINT('',(-23.,1.6,-29.2088702627253));
#807=CARTESIAN_POINT('',(23.,1.6,-29.2088702627253));
#808=CARTESIAN_POINT('',(-23.,5.6,-29.2088702627253));
#809=CARTESIAN_POINT('',(-23.,0.,-29.2088702627253));
#810=CARTESIAN_POINT('',(23.,5.6,-29.2088702627253));
#811=CARTESIAN_POINT('Origin',(25.,0.,-38.2088702627253));
#812=CARTESIAN_POINT('',(25.,1.6,-38.2088702627253));
#813=CARTESIAN_POINT('',(-25.,1.6,-38.2088702627253));
#814=CARTESIAN_POINT('',(25.,5.6,-38.2088702627253));
#815=CARTESIAN_POINT('',(-25.,5.6,-38.2088702627253));
#816=CARTESIAN_POINT('',(25.,0.,-38.2088702627253));
#817=CARTESIAN_POINT('Origin',(25.,0.,-37.2088702627253));
#818=CARTESIAN_POINT('',(25.,1.6,-37.2088702627253));
#819=CARTESIAN_POINT('',(25.,1.6,-38.2088702627253));
#820=CARTESIAN_POINT('',(25.,5.6,-37.2088702627253));
#821=CARTESIAN_POINT('',(25.,5.6,-38.2088702627253));
#822=CARTESIAN_POINT('',(25.,0.,-37.2088702627253));
#823=CARTESIAN_POINT('Origin',(9.,0.,-37.2088702627253));
#824=CARTESIAN_POINT('',(9.,1.6,-37.2088702627253));
#825=CARTESIAN_POINT('',(-24.,1.6,-37.2088702627253));
#826=CARTESIAN_POINT('',(9.,5.6,-37.2088702627253));
#827=CARTESIAN_POINT('',(-24.,5.6,-37.2088702627253));
#828=CARTESIAN_POINT('',(9.,0.,-37.2088702627253));
#829=CARTESIAN_POINT('Origin',(9.,0.,-36.2088702627253));
#830=CARTESIAN_POINT('',(9.,1.6,-36.2088702627253));
#831=CARTESIAN_POINT('',(9.,1.6,-37.2088702627253));
#832=CARTESIAN_POINT('',(9.,5.6,-36.2088702627253));
#833=CARTESIAN_POINT('',(9.,5.6,-37.2088702627253));
#834=CARTESIAN_POINT('',(9.,0.,-36.2088702627253));
#835=CARTESIAN_POINT('Origin',(-23.,0.,-36.2088702627253));
#836=CARTESIAN_POINT('',(-23.,1.6,-36.2088702627253));
#837=CARTESIAN_POINT('',(-23.,1.6,-36.2088702627253));
#838=CARTESIAN_POINT('',(-23.,5.6,-36.2088702627253));
#839=CARTESIAN_POINT('',(-23.,5.6,-36.2088702627253));
#840=CARTESIAN_POINT('',(-23.,0.,-36.2088702627253));
#841=CARTESIAN_POINT('Origin',(-23.,0.,-29.2088702627253));
#842=CARTESIAN_POINT('',(-23.,1.6,-29.2088702627253));
#843=CARTESIAN_POINT('',(-23.,5.6,-29.2088702627253));
#844=CARTESIAN_POINT('Origin',(0.,5.6,-32.7088702627253));
#845=CARTESIAN_POINT('Origin',(27.,0.,-28.2088702627253));
#846=CARTESIAN_POINT('',(27.,0.,-40.2088702627253));
#847=CARTESIAN_POINT('',(27.,1.6,-40.2088702627253));
#848=CARTESIAN_POINT('Origin',(0.500000000000003,1.6,-32.7088702627253));
#849=CARTESIAN_POINT('Origin',(0.500000000000003,0.,-32.7088702627253));
#850=UNCERTAINTY_MEASURE_WITH_UNIT(LENGTH_MEASURE(0.01),#854,
'DISTANCE_ACCURACY_VALUE',
'Maximum model space distance between geometric entities at asserted c
onnectivities');
#851=UNCERTAINTY_MEASURE_WITH_UNIT(LENGTH_MEASURE(0.01),#854,
'DISTANCE_ACCURACY_VALUE',
'Maximum model space distance between geometric entities at asserted c
onnectivities');
#852=(
GEOMETRIC_REPRESENTATION_CONTEXT(3)
GLOBAL_UNCERTAINTY_ASSIGNED_CONTEXT((#850))
GLOBAL_UNIT_ASSIGNED_CONTEXT((#854,#856,#857))
REPRESENTATION_CONTEXT('','3D')
);
#853=(
GEOMETRIC_REPRESENTATION_CONTEXT(3)
GLOBAL_UNCERTAINTY_ASSIGNED_CONTEXT((#851))
GLOBAL_UNIT_ASSIGNED_CONTEXT((#854,#856,#857))
REPRESENTATION_CONTEXT('','3D')
);
#854=(
LENGTH_UNIT()
NAMED_UNIT(*)
SI_UNIT(.MILLI.,.METRE.)
);
#855=(
LENGTH_UNIT()
NAMED_UNIT(*)
SI_UNIT($,.METRE.)
);
#856=(
NAMED_UNIT(*)
PLANE_ANGLE_UNIT()
SI_UNIT($,.RADIAN.)
);
#857=(
NAMED_UNIT(*)
SI_UNIT($,.STERADIAN.)
SOLID_ANGLE_UNIT()
);
#858=SHAPE_DEFINITION_REPRESENTATION(#859,#860);
#859=PRODUCT_DEFINITION_SHAPE('',$,#862);
#860=SHAPE_REPRESENTATION('',(#546),#852);
#861=PRODUCT_DEFINITION_CONTEXT('part definition',#866,'design');
#862=PRODUCT_DEFINITION('LD2410B_Mount_Body','LD2410B_Mount_Body',#863,
#861);
#863=PRODUCT_DEFINITION_FORMATION('',$,#868);
#864=PRODUCT_RELATED_PRODUCT_CATEGORY('LD2410B_Mount_Body',
'LD2410B_Mount_Body',(#868));
#865=APPLICATION_PROTOCOL_DEFINITION('international standard',
'automotive_design',2009,#866);
#866=APPLICATION_CONTEXT(
'Core Data for Automotive Mechanical Design Process');
#867=PRODUCT_CONTEXT('part definition',#866,'mechanical');
#868=PRODUCT('LD2410B_Mount_Body','LD2410B_Mount_Body',$,(#867));
#869=PRESENTATION_STYLE_ASSIGNMENT((#870));
#870=SURFACE_STYLE_USAGE(.BOTH.,#871);
#871=SURFACE_SIDE_STYLE('',(#872));
#872=SURFACE_STYLE_FILL_AREA(#873);
#873=FILL_AREA_STYLE('Steel - Satin',(#874));
#874=FILL_AREA_STYLE_COLOUR('Steel - Satin',#875);
#875=COLOUR_RGB('Steel - Satin',0.627450980392157,0.627450980392157,0.627450980392157);
ENDSEC;
END-ISO-10303-21;
