ISO-10303-21;
HEADER;
/* Generated by software containing ST-Developer
 * from STEP Tools, Inc. (www.steptools.com) 
 */

FILE_DESCRIPTION(
/* description */ (
'(c) 2026 BionicBone. License: CERN-OHL-W-2.0. Source: github.com/bion
icbone/Workshop-Environment-Monitor'),
/* implementation_level */ '2;1');

FILE_NAME(
/* name */ 'SFA40 Mount v6.step',
/* time_stamp */ '2026-07-26T15:25:13+01:00',
/* author */ (''),
/* organization */ (''),
/* preprocessor_version */ 'ST-DEVELOPER v20.1',
/* originating_system */ 'Autodesk Translation Framework v15.8.0.0',
/* authorisation */ '');

FILE_SCHEMA (('AUTOMOTIVE_DESIGN { 1 0 10303 214 3 1 1 }'));
ENDSEC;

DATA;
#10=MECHANICAL_DESIGN_GEOMETRIC_PRESENTATION_REPRESENTATION('',(#13),#643);
#11=SHAPE_REPRESENTATION_RELATIONSHIP('SRR','None',#650,#12);
#12=ADVANCED_BREP_SHAPE_REPRESENTATION('',(#14),#642);
#13=STYLED_ITEM('',(#659),#14);
#14=MANIFOLD_SOLID_BREP('Body1',#359);
#15=FACE_BOUND('',#65,.T.);
#16=FACE_BOUND('',#68,.T.);
#17=FACE_BOUND('',#71,.T.);
#18=FACE_BOUND('',#74,.T.);
#19=PLANE('',#376);
#20=PLANE('',#380);
#21=PLANE('',#384);
#22=PLANE('',#388);
#23=PLANE('',#394);
#24=PLANE('',#400);
#25=PLANE('',#406);
#26=PLANE('',#412);
#27=PLANE('',#413);
#28=PLANE('',#414);
#29=PLANE('',#415);
#30=PLANE('',#416);
#31=PLANE('',#417);
#32=PLANE('',#418);
#33=FACE_OUTER_BOUND('',#55,.T.);
#34=FACE_OUTER_BOUND('',#56,.T.);
#35=FACE_OUTER_BOUND('',#57,.T.);
#36=FACE_OUTER_BOUND('',#58,.T.);
#37=FACE_OUTER_BOUND('',#59,.T.);
#38=FACE_OUTER_BOUND('',#60,.T.);
#39=FACE_OUTER_BOUND('',#61,.T.);
#40=FACE_OUTER_BOUND('',#62,.T.);
#41=FACE_OUTER_BOUND('',#63,.T.);
#42=FACE_OUTER_BOUND('',#64,.T.);
#43=FACE_OUTER_BOUND('',#66,.T.);
#44=FACE_OUTER_BOUND('',#67,.T.);
#45=FACE_OUTER_BOUND('',#69,.T.);
#46=FACE_OUTER_BOUND('',#70,.T.);
#47=FACE_OUTER_BOUND('',#72,.T.);
#48=FACE_OUTER_BOUND('',#73,.T.);
#49=FACE_OUTER_BOUND('',#75,.T.);
#50=FACE_OUTER_BOUND('',#76,.T.);
#51=FACE_OUTER_BOUND('',#77,.T.);
#52=FACE_OUTER_BOUND('',#78,.T.);
#53=FACE_OUTER_BOUND('',#79,.T.);
#54=FACE_OUTER_BOUND('',#80,.T.);
#55=EDGE_LOOP('',(#233,#234,#235,#236));
#56=EDGE_LOOP('',(#237));
#57=EDGE_LOOP('',(#238,#239,#240,#241));
#58=EDGE_LOOP('',(#242));
#59=EDGE_LOOP('',(#243,#244,#245,#246));
#60=EDGE_LOOP('',(#247));
#61=EDGE_LOOP('',(#248,#249,#250,#251));
#62=EDGE_LOOP('',(#252));
#63=EDGE_LOOP('',(#253,#254,#255,#256,#257,#258,#259,#260));
#64=EDGE_LOOP('',(#261));
#65=EDGE_LOOP('',(#262));
#66=EDGE_LOOP('',(#263,#264,#265,#266,#267,#268,#269,#270));
#67=EDGE_LOOP('',(#271));
#68=EDGE_LOOP('',(#272));
#69=EDGE_LOOP('',(#273,#274,#275,#276,#277,#278,#279,#280));
#70=EDGE_LOOP('',(#281));
#71=EDGE_LOOP('',(#282));
#72=EDGE_LOOP('',(#283,#284,#285,#286,#287,#288,#289,#290));
#73=EDGE_LOOP('',(#291));
#74=EDGE_LOOP('',(#292));
#75=EDGE_LOOP('',(#293,#294,#295,#296));
#76=EDGE_LOOP('',(#297,#298,#299,#300));
#77=EDGE_LOOP('',(#301,#302,#303,#304));
#78=EDGE_LOOP('',(#305,#306,#307,#308));
#79=EDGE_LOOP('',(#309,#310,#311,#312,#313,#314,#315,#316,#317,#318));
#80=EDGE_LOOP('',(#319,#320,#321,#322,#323,#324,#325,#326,#327,#328));
#81=LINE('',#542,#105);
#82=LINE('',#549,#106);
#83=LINE('',#556,#107);
#84=LINE('',#563,#108);
#85=LINE('',#570,#109);
#86=LINE('',#574,#110);
#87=LINE('',#578,#111);
#88=LINE('',#585,#112);
#89=LINE('',#589,#113);
#90=LINE('',#593,#114);
#91=LINE('',#600,#115);
#92=LINE('',#604,#116);
#93=LINE('',#608,#117);
#94=LINE('',#615,#118);
#95=LINE('',#619,#119);
#96=LINE('',#623,#120);
#97=LINE('',#627,#121);
#98=LINE('',#628,#122);
#99=LINE('',#630,#123);
#100=LINE('',#631,#124);
#101=LINE('',#633,#125);
#102=LINE('',#634,#126);
#103=LINE('',#636,#127);
#104=LINE('',#637,#128);
#105=VECTOR('',#425,0.600000000000001);
#106=VECTOR('',#434,0.600000000000001);
#107=VECTOR('',#443,0.95);
#108=VECTOR('',#452,0.95);
#109=VECTOR('',#461,2.);
#110=VECTOR('',#464,10.);
#111=VECTOR('',#467,10.);
#112=VECTOR('',#476,2.);
#113=VECTOR('',#479,10.);
#114=VECTOR('',#482,10.);
#115=VECTOR('',#491,2.);
#116=VECTOR('',#494,10.);
#117=VECTOR('',#497,10.);
#118=VECTOR('',#506,2.);
#119=VECTOR('',#509,10.);
#120=VECTOR('',#512,10.);
#121=VECTOR('',#519,10.);
#122=VECTOR('',#520,10.);
#123=VECTOR('',#523,10.);
#124=VECTOR('',#524,10.);
#125=VECTOR('',#527,10.);
#126=VECTOR('',#528,10.);
#127=VECTOR('',#531,10.);
#128=VECTOR('',#532,10.);
#129=CIRCLE('',#374,0.600000000000001);
#130=CIRCLE('',#375,0.600000000000001);
#131=CIRCLE('',#378,0.600000000000001);
#132=CIRCLE('',#379,0.600000000000001);
#133=CIRCLE('',#382,0.95);
#134=CIRCLE('',#383,0.95);
#135=CIRCLE('',#386,0.95);
#136=CIRCLE('',#387,0.95);
#137=CIRCLE('',#390,2.);
#138=CIRCLE('',#391,2.);
#139=CIRCLE('',#392,2.);
#140=CIRCLE('',#393,2.);
#141=CIRCLE('',#396,2.);
#142=CIRCLE('',#397,2.);
#143=CIRCLE('',#398,2.);
#144=CIRCLE('',#399,2.);
#145=CIRCLE('',#402,2.);
#146=CIRCLE('',#403,2.);
#147=CIRCLE('',#404,2.);
#148=CIRCLE('',#405,2.);
#149=CIRCLE('',#408,2.);
#150=CIRCLE('',#409,2.);
#151=CIRCLE('',#410,2.);
#152=CIRCLE('',#411,2.);
#153=VERTEX_POINT('',#539);
#154=VERTEX_POINT('',#541);
#155=VERTEX_POINT('',#546);
#156=VERTEX_POINT('',#548);
#157=VERTEX_POINT('',#553);
#158=VERTEX_POINT('',#555);
#159=VERTEX_POINT('',#560);
#160=VERTEX_POINT('',#562);
#161=VERTEX_POINT('',#567);
#162=VERTEX_POINT('',#569);
#163=VERTEX_POINT('',#571);
#164=VERTEX_POINT('',#573);
#165=VERTEX_POINT('',#575);
#166=VERTEX_POINT('',#577);
#167=VERTEX_POINT('',#582);
#168=VERTEX_POINT('',#584);
#169=VERTEX_POINT('',#586);
#170=VERTEX_POINT('',#588);
#171=VERTEX_POINT('',#590);
#172=VERTEX_POINT('',#592);
#173=VERTEX_POINT('',#597);
#174=VERTEX_POINT('',#599);
#175=VERTEX_POINT('',#601);
#176=VERTEX_POINT('',#603);
#177=VERTEX_POINT('',#605);
#178=VERTEX_POINT('',#607);
#179=VERTEX_POINT('',#612);
#180=VERTEX_POINT('',#614);
#181=VERTEX_POINT('',#616);
#182=VERTEX_POINT('',#618);
#183=VERTEX_POINT('',#620);
#184=VERTEX_POINT('',#622);
#185=EDGE_CURVE('',#153,#153,#129,.T.);
#186=EDGE_CURVE('',#153,#154,#81,.T.);
#187=EDGE_CURVE('',#154,#154,#130,.T.);
#188=EDGE_CURVE('',#155,#155,#131,.T.);
#189=EDGE_CURVE('',#155,#156,#82,.T.);
#190=EDGE_CURVE('',#156,#156,#132,.T.);
#191=EDGE_CURVE('',#157,#157,#133,.T.);
#192=EDGE_CURVE('',#157,#158,#83,.T.);
#193=EDGE_CURVE('',#158,#158,#134,.T.);
#194=EDGE_CURVE('',#159,#159,#135,.T.);
#195=EDGE_CURVE('',#159,#160,#84,.T.);
#196=EDGE_CURVE('',#160,#160,#136,.T.);
#197=EDGE_CURVE('',#161,#161,#137,.T.);
#198=EDGE_CURVE('',#161,#162,#85,.T.);
#199=EDGE_CURVE('',#162,#163,#138,.T.);
#200=EDGE_CURVE('',#163,#164,#86,.T.);
#201=EDGE_CURVE('',#165,#164,#139,.T.);
#202=EDGE_CURVE('',#166,#165,#87,.T.);
#203=EDGE_CURVE('',#166,#162,#140,.T.);
#204=EDGE_CURVE('',#167,#167,#141,.T.);
#205=EDGE_CURVE('',#167,#168,#88,.T.);
#206=EDGE_CURVE('',#168,#169,#142,.T.);
#207=EDGE_CURVE('',#169,#170,#89,.T.);
#208=EDGE_CURVE('',#171,#170,#143,.T.);
#209=EDGE_CURVE('',#172,#171,#90,.T.);
#210=EDGE_CURVE('',#172,#168,#144,.T.);
#211=EDGE_CURVE('',#173,#173,#145,.T.);
#212=EDGE_CURVE('',#173,#174,#91,.T.);
#213=EDGE_CURVE('',#175,#174,#146,.T.);
#214=EDGE_CURVE('',#176,#175,#92,.T.);
#215=EDGE_CURVE('',#176,#177,#147,.T.);
#216=EDGE_CURVE('',#177,#178,#93,.T.);
#217=EDGE_CURVE('',#174,#178,#148,.T.);
#218=EDGE_CURVE('',#179,#179,#149,.T.);
#219=EDGE_CURVE('',#179,#180,#94,.T.);
#220=EDGE_CURVE('',#181,#180,#150,.T.);
#221=EDGE_CURVE('',#182,#181,#95,.T.);
#222=EDGE_CURVE('',#182,#183,#151,.T.);
#223=EDGE_CURVE('',#183,#184,#96,.T.);
#224=EDGE_CURVE('',#180,#184,#152,.T.);
#225=EDGE_CURVE('',#172,#183,#97,.T.);
#226=EDGE_CURVE('',#184,#171,#98,.T.);
#227=EDGE_CURVE('',#182,#177,#99,.T.);
#228=EDGE_CURVE('',#178,#181,#100,.T.);
#229=EDGE_CURVE('',#176,#163,#101,.T.);
#230=EDGE_CURVE('',#164,#175,#102,.T.);
#231=EDGE_CURVE('',#166,#169,#103,.T.);
#232=EDGE_CURVE('',#170,#165,#104,.T.);
#233=ORIENTED_EDGE('',*,*,#185,.F.);
#234=ORIENTED_EDGE('',*,*,#186,.T.);
#235=ORIENTED_EDGE('',*,*,#187,.F.);
#236=ORIENTED_EDGE('',*,*,#186,.F.);
#237=ORIENTED_EDGE('',*,*,#185,.T.);
#238=ORIENTED_EDGE('',*,*,#188,.F.);
#239=ORIENTED_EDGE('',*,*,#189,.T.);
#240=ORIENTED_EDGE('',*,*,#190,.F.);
#241=ORIENTED_EDGE('',*,*,#189,.F.);
#242=ORIENTED_EDGE('',*,*,#188,.T.);
#243=ORIENTED_EDGE('',*,*,#191,.F.);
#244=ORIENTED_EDGE('',*,*,#192,.T.);
#245=ORIENTED_EDGE('',*,*,#193,.F.);
#246=ORIENTED_EDGE('',*,*,#192,.F.);
#247=ORIENTED_EDGE('',*,*,#191,.T.);
#248=ORIENTED_EDGE('',*,*,#194,.F.);
#249=ORIENTED_EDGE('',*,*,#195,.T.);
#250=ORIENTED_EDGE('',*,*,#196,.F.);
#251=ORIENTED_EDGE('',*,*,#195,.F.);
#252=ORIENTED_EDGE('',*,*,#194,.T.);
#253=ORIENTED_EDGE('',*,*,#197,.F.);
#254=ORIENTED_EDGE('',*,*,#198,.T.);
#255=ORIENTED_EDGE('',*,*,#199,.T.);
#256=ORIENTED_EDGE('',*,*,#200,.T.);
#257=ORIENTED_EDGE('',*,*,#201,.F.);
#258=ORIENTED_EDGE('',*,*,#202,.F.);
#259=ORIENTED_EDGE('',*,*,#203,.T.);
#260=ORIENTED_EDGE('',*,*,#198,.F.);
#261=ORIENTED_EDGE('',*,*,#197,.T.);
#262=ORIENTED_EDGE('',*,*,#190,.T.);
#263=ORIENTED_EDGE('',*,*,#204,.F.);
#264=ORIENTED_EDGE('',*,*,#205,.T.);
#265=ORIENTED_EDGE('',*,*,#206,.T.);
#266=ORIENTED_EDGE('',*,*,#207,.T.);
#267=ORIENTED_EDGE('',*,*,#208,.F.);
#268=ORIENTED_EDGE('',*,*,#209,.F.);
#269=ORIENTED_EDGE('',*,*,#210,.T.);
#270=ORIENTED_EDGE('',*,*,#205,.F.);
#271=ORIENTED_EDGE('',*,*,#204,.T.);
#272=ORIENTED_EDGE('',*,*,#187,.T.);
#273=ORIENTED_EDGE('',*,*,#211,.F.);
#274=ORIENTED_EDGE('',*,*,#212,.T.);
#275=ORIENTED_EDGE('',*,*,#213,.F.);
#276=ORIENTED_EDGE('',*,*,#214,.F.);
#277=ORIENTED_EDGE('',*,*,#215,.T.);
#278=ORIENTED_EDGE('',*,*,#216,.T.);
#279=ORIENTED_EDGE('',*,*,#217,.F.);
#280=ORIENTED_EDGE('',*,*,#212,.F.);
#281=ORIENTED_EDGE('',*,*,#211,.T.);
#282=ORIENTED_EDGE('',*,*,#193,.T.);
#283=ORIENTED_EDGE('',*,*,#218,.F.);
#284=ORIENTED_EDGE('',*,*,#219,.T.);
#285=ORIENTED_EDGE('',*,*,#220,.F.);
#286=ORIENTED_EDGE('',*,*,#221,.F.);
#287=ORIENTED_EDGE('',*,*,#222,.T.);
#288=ORIENTED_EDGE('',*,*,#223,.T.);
#289=ORIENTED_EDGE('',*,*,#224,.F.);
#290=ORIENTED_EDGE('',*,*,#219,.F.);
#291=ORIENTED_EDGE('',*,*,#218,.T.);
#292=ORIENTED_EDGE('',*,*,#196,.T.);
#293=ORIENTED_EDGE('',*,*,#225,.F.);
#294=ORIENTED_EDGE('',*,*,#209,.T.);
#295=ORIENTED_EDGE('',*,*,#226,.F.);
#296=ORIENTED_EDGE('',*,*,#223,.F.);
#297=ORIENTED_EDGE('',*,*,#227,.F.);
#298=ORIENTED_EDGE('',*,*,#221,.T.);
#299=ORIENTED_EDGE('',*,*,#228,.F.);
#300=ORIENTED_EDGE('',*,*,#216,.F.);
#301=ORIENTED_EDGE('',*,*,#229,.F.);
#302=ORIENTED_EDGE('',*,*,#214,.T.);
#303=ORIENTED_EDGE('',*,*,#230,.F.);
#304=ORIENTED_EDGE('',*,*,#200,.F.);
#305=ORIENTED_EDGE('',*,*,#231,.F.);
#306=ORIENTED_EDGE('',*,*,#202,.T.);
#307=ORIENTED_EDGE('',*,*,#232,.F.);
#308=ORIENTED_EDGE('',*,*,#207,.F.);
#309=ORIENTED_EDGE('',*,*,#232,.T.);
#310=ORIENTED_EDGE('',*,*,#201,.T.);
#311=ORIENTED_EDGE('',*,*,#230,.T.);
#312=ORIENTED_EDGE('',*,*,#213,.T.);
#313=ORIENTED_EDGE('',*,*,#217,.T.);
#314=ORIENTED_EDGE('',*,*,#228,.T.);
#315=ORIENTED_EDGE('',*,*,#220,.T.);
#316=ORIENTED_EDGE('',*,*,#224,.T.);
#317=ORIENTED_EDGE('',*,*,#226,.T.);
#318=ORIENTED_EDGE('',*,*,#208,.T.);
#319=ORIENTED_EDGE('',*,*,#231,.T.);
#320=ORIENTED_EDGE('',*,*,#206,.F.);
#321=ORIENTED_EDGE('',*,*,#210,.F.);
#322=ORIENTED_EDGE('',*,*,#225,.T.);
#323=ORIENTED_EDGE('',*,*,#222,.F.);
#324=ORIENTED_EDGE('',*,*,#227,.T.);
#325=ORIENTED_EDGE('',*,*,#215,.F.);
#326=ORIENTED_EDGE('',*,*,#229,.T.);
#327=ORIENTED_EDGE('',*,*,#199,.F.);
#328=ORIENTED_EDGE('',*,*,#203,.F.);
#329=CYLINDRICAL_SURFACE('',#373,0.600000000000001);
#330=CYLINDRICAL_SURFACE('',#377,0.600000000000001);
#331=CYLINDRICAL_SURFACE('',#381,0.95);
#332=CYLINDRICAL_SURFACE('',#385,0.95);
#333=CYLINDRICAL_SURFACE('',#389,2.);
#334=CYLINDRICAL_SURFACE('',#395,2.);
#335=CYLINDRICAL_SURFACE('',#401,2.);
#336=CYLINDRICAL_SURFACE('',#407,2.);
#337=ADVANCED_FACE('',(#33),#329,.T.);
#338=ADVANCED_FACE('',(#34),#19,.T.);
#339=ADVANCED_FACE('',(#35),#330,.T.);
#340=ADVANCED_FACE('',(#36),#20,.T.);
#341=ADVANCED_FACE('',(#37),#331,.T.);
#342=ADVANCED_FACE('',(#38),#21,.T.);
#343=ADVANCED_FACE('',(#39),#332,.T.);
#344=ADVANCED_FACE('',(#40),#22,.T.);
#345=ADVANCED_FACE('',(#41),#333,.T.);
#346=ADVANCED_FACE('',(#42,#15),#23,.T.);
#347=ADVANCED_FACE('',(#43),#334,.T.);
#348=ADVANCED_FACE('',(#44,#16),#24,.T.);
#349=ADVANCED_FACE('',(#45),#335,.T.);
#350=ADVANCED_FACE('',(#46,#17),#25,.T.);
#351=ADVANCED_FACE('',(#47),#336,.T.);
#352=ADVANCED_FACE('',(#48,#18),#26,.T.);
#353=ADVANCED_FACE('',(#49),#27,.T.);
#354=ADVANCED_FACE('',(#50),#28,.T.);
#355=ADVANCED_FACE('',(#51),#29,.T.);
#356=ADVANCED_FACE('',(#52),#30,.T.);
#357=ADVANCED_FACE('',(#53),#31,.T.);
#358=ADVANCED_FACE('',(#54),#32,.F.);
#359=CLOSED_SHELL('',(#337,#338,#339,#340,#341,#342,#343,#344,#345,#346,
#347,#348,#349,#350,#351,#352,#353,#354,#355,#356,#357,#358));
#360=DERIVED_UNIT_ELEMENT(#362,1.);
#361=DERIVED_UNIT_ELEMENT(#645,-3.);
#362=(
MASS_UNIT()
NAMED_UNIT(*)
SI_UNIT(.KILO.,.GRAM.)
);
#363=DERIVED_UNIT((#360,#361));
#364=MEASURE_REPRESENTATION_ITEM('density measure',
POSITIVE_RATIO_MEASURE(7850.),#363);
#365=PROPERTY_DEFINITION_REPRESENTATION(#370,#367);
#366=PROPERTY_DEFINITION_REPRESENTATION(#371,#368);
#367=REPRESENTATION('material name',(#369),#642);
#368=REPRESENTATION('density',(#364),#642);
#369=DESCRIPTIVE_REPRESENTATION_ITEM('Steel','Steel');
#370=PROPERTY_DEFINITION('material property','material name',#652);
#371=PROPERTY_DEFINITION('material property','density of part',#652);
#372=AXIS2_PLACEMENT_3D('',#537,#419,#420);
#373=AXIS2_PLACEMENT_3D('',#538,#421,#422);
#374=AXIS2_PLACEMENT_3D('',#540,#423,#424);
#375=AXIS2_PLACEMENT_3D('',#543,#426,#427);
#376=AXIS2_PLACEMENT_3D('',#544,#428,#429);
#377=AXIS2_PLACEMENT_3D('',#545,#430,#431);
#378=AXIS2_PLACEMENT_3D('',#547,#432,#433);
#379=AXIS2_PLACEMENT_3D('',#550,#435,#436);
#380=AXIS2_PLACEMENT_3D('',#551,#437,#438);
#381=AXIS2_PLACEMENT_3D('',#552,#439,#440);
#382=AXIS2_PLACEMENT_3D('',#554,#441,#442);
#383=AXIS2_PLACEMENT_3D('',#557,#444,#445);
#384=AXIS2_PLACEMENT_3D('',#558,#446,#447);
#385=AXIS2_PLACEMENT_3D('',#559,#448,#449);
#386=AXIS2_PLACEMENT_3D('',#561,#450,#451);
#387=AXIS2_PLACEMENT_3D('',#564,#453,#454);
#388=AXIS2_PLACEMENT_3D('',#565,#455,#456);
#389=AXIS2_PLACEMENT_3D('',#566,#457,#458);
#390=AXIS2_PLACEMENT_3D('',#568,#459,#460);
#391=AXIS2_PLACEMENT_3D('',#572,#462,#463);
#392=AXIS2_PLACEMENT_3D('',#576,#465,#466);
#393=AXIS2_PLACEMENT_3D('',#579,#468,#469);
#394=AXIS2_PLACEMENT_3D('',#580,#470,#471);
#395=AXIS2_PLACEMENT_3D('',#581,#472,#473);
#396=AXIS2_PLACEMENT_3D('',#583,#474,#475);
#397=AXIS2_PLACEMENT_3D('',#587,#477,#478);
#398=AXIS2_PLACEMENT_3D('',#591,#480,#481);
#399=AXIS2_PLACEMENT_3D('',#594,#483,#484);
#400=AXIS2_PLACEMENT_3D('',#595,#485,#486);
#401=AXIS2_PLACEMENT_3D('',#596,#487,#488);
#402=AXIS2_PLACEMENT_3D('',#598,#489,#490);
#403=AXIS2_PLACEMENT_3D('',#602,#492,#493);
#404=AXIS2_PLACEMENT_3D('',#606,#495,#496);
#405=AXIS2_PLACEMENT_3D('',#609,#498,#499);
#406=AXIS2_PLACEMENT_3D('',#610,#500,#501);
#407=AXIS2_PLACEMENT_3D('',#611,#502,#503);
#408=AXIS2_PLACEMENT_3D('',#613,#504,#505);
#409=AXIS2_PLACEMENT_3D('',#617,#507,#508);
#410=AXIS2_PLACEMENT_3D('',#621,#510,#511);
#411=AXIS2_PLACEMENT_3D('',#624,#513,#514);
#412=AXIS2_PLACEMENT_3D('',#625,#515,#516);
#413=AXIS2_PLACEMENT_3D('',#626,#517,#518);
#414=AXIS2_PLACEMENT_3D('',#629,#521,#522);
#415=AXIS2_PLACEMENT_3D('',#632,#525,#526);
#416=AXIS2_PLACEMENT_3D('',#635,#529,#530);
#417=AXIS2_PLACEMENT_3D('',#638,#533,#534);
#418=AXIS2_PLACEMENT_3D('',#639,#535,#536);
#419=DIRECTION('axis',(0.,0.,1.));
#420=DIRECTION('refdir',(1.,0.,0.));
#421=DIRECTION('center_axis',(0.,1.,0.));
#422=DIRECTION('ref_axis',(1.,0.,0.));
#423=DIRECTION('center_axis',(0.,1.,0.));
#424=DIRECTION('ref_axis',(1.,0.,0.));
#425=DIRECTION('',(0.,-1.,0.));
#426=DIRECTION('center_axis',(0.,-1.,0.));
#427=DIRECTION('ref_axis',(1.,0.,0.));
#428=DIRECTION('center_axis',(0.,1.,0.));
#429=DIRECTION('ref_axis',(1.,0.,0.));
#430=DIRECTION('center_axis',(0.,1.,0.));
#431=DIRECTION('ref_axis',(1.,0.,0.));
#432=DIRECTION('center_axis',(0.,1.,0.));
#433=DIRECTION('ref_axis',(1.,0.,0.));
#434=DIRECTION('',(0.,-1.,0.));
#435=DIRECTION('center_axis',(0.,-1.,0.));
#436=DIRECTION('ref_axis',(1.,0.,0.));
#437=DIRECTION('center_axis',(0.,1.,0.));
#438=DIRECTION('ref_axis',(1.,0.,0.));
#439=DIRECTION('center_axis',(0.,1.,0.));
#440=DIRECTION('ref_axis',(1.,0.,0.));
#441=DIRECTION('center_axis',(0.,1.,0.));
#442=DIRECTION('ref_axis',(1.,0.,0.));
#443=DIRECTION('',(0.,-1.,0.));
#444=DIRECTION('center_axis',(0.,-1.,0.));
#445=DIRECTION('ref_axis',(1.,0.,0.));
#446=DIRECTION('center_axis',(0.,1.,0.));
#447=DIRECTION('ref_axis',(1.,0.,0.));
#448=DIRECTION('center_axis',(0.,1.,0.));
#449=DIRECTION('ref_axis',(1.,0.,0.));
#450=DIRECTION('center_axis',(0.,1.,0.));
#451=DIRECTION('ref_axis',(1.,0.,0.));
#452=DIRECTION('',(0.,-1.,0.));
#453=DIRECTION('center_axis',(0.,-1.,0.));
#454=DIRECTION('ref_axis',(1.,0.,0.));
#455=DIRECTION('center_axis',(0.,1.,0.));
#456=DIRECTION('ref_axis',(1.,0.,0.));
#457=DIRECTION('center_axis',(0.,1.,0.));
#458=DIRECTION('ref_axis',(1.,0.,0.));
#459=DIRECTION('center_axis',(0.,1.,0.));
#460=DIRECTION('ref_axis',(1.,0.,0.));
#461=DIRECTION('',(0.,-1.,0.));
#462=DIRECTION('center_axis',(0.,1.,0.));
#463=DIRECTION('ref_axis',(1.,0.,0.));
#464=DIRECTION('',(0.,1.,0.));
#465=DIRECTION('center_axis',(0.,-1.,0.));
#466=DIRECTION('ref_axis',(1.,0.,0.));
#467=DIRECTION('',(0.,1.,0.));
#468=DIRECTION('center_axis',(0.,1.,0.));
#469=DIRECTION('ref_axis',(1.,0.,0.));
#470=DIRECTION('center_axis',(0.,1.,0.));
#471=DIRECTION('ref_axis',(1.,0.,0.));
#472=DIRECTION('center_axis',(0.,1.,0.));
#473=DIRECTION('ref_axis',(1.,0.,0.));
#474=DIRECTION('center_axis',(0.,1.,0.));
#475=DIRECTION('ref_axis',(1.,0.,0.));
#476=DIRECTION('',(0.,-1.,0.));
#477=DIRECTION('center_axis',(0.,1.,0.));
#478=DIRECTION('ref_axis',(1.,0.,0.));
#479=DIRECTION('',(0.,1.,0.));
#480=DIRECTION('center_axis',(0.,-1.,0.));
#481=DIRECTION('ref_axis',(1.,0.,0.));
#482=DIRECTION('',(0.,1.,0.));
#483=DIRECTION('center_axis',(0.,1.,0.));
#484=DIRECTION('ref_axis',(1.,0.,0.));
#485=DIRECTION('center_axis',(0.,1.,0.));
#486=DIRECTION('ref_axis',(1.,0.,0.));
#487=DIRECTION('center_axis',(0.,1.,0.));
#488=DIRECTION('ref_axis',(1.,0.,0.));
#489=DIRECTION('center_axis',(0.,1.,0.));
#490=DIRECTION('ref_axis',(1.,0.,0.));
#491=DIRECTION('',(0.,-1.,0.));
#492=DIRECTION('center_axis',(0.,-1.,0.));
#493=DIRECTION('ref_axis',(1.,0.,0.));
#494=DIRECTION('',(0.,1.,0.));
#495=DIRECTION('center_axis',(0.,1.,0.));
#496=DIRECTION('ref_axis',(1.,0.,0.));
#497=DIRECTION('',(0.,1.,0.));
#498=DIRECTION('center_axis',(0.,-1.,0.));
#499=DIRECTION('ref_axis',(1.,0.,0.));
#500=DIRECTION('center_axis',(0.,1.,0.));
#501=DIRECTION('ref_axis',(1.,0.,0.));
#502=DIRECTION('center_axis',(0.,1.,0.));
#503=DIRECTION('ref_axis',(1.,0.,0.));
#504=DIRECTION('center_axis',(0.,1.,0.));
#505=DIRECTION('ref_axis',(1.,0.,0.));
#506=DIRECTION('',(0.,-1.,0.));
#507=DIRECTION('center_axis',(0.,-1.,0.));
#508=DIRECTION('ref_axis',(1.,0.,0.));
#509=DIRECTION('',(0.,1.,0.));
#510=DIRECTION('center_axis',(0.,1.,0.));
#511=DIRECTION('ref_axis',(1.,0.,0.));
#512=DIRECTION('',(0.,1.,0.));
#513=DIRECTION('center_axis',(0.,-1.,0.));
#514=DIRECTION('ref_axis',(1.,0.,0.));
#515=DIRECTION('center_axis',(0.,1.,0.));
#516=DIRECTION('ref_axis',(1.,0.,0.));
#517=DIRECTION('center_axis',(0.,0.,-1.));
#518=DIRECTION('ref_axis',(-1.,0.,0.));
#519=DIRECTION('',(1.,0.,0.));
#520=DIRECTION('',(-1.,0.,0.));
#521=DIRECTION('center_axis',(1.,0.,1.05735526154777E-16));
#522=DIRECTION('ref_axis',(1.05735526154777E-16,0.,-1.));
#523=DIRECTION('',(-1.05735526154777E-16,0.,1.));
#524=DIRECTION('',(1.05735526154777E-16,0.,-1.));
#525=DIRECTION('center_axis',(0.,0.,1.));
#526=DIRECTION('ref_axis',(1.,0.,0.));
#527=DIRECTION('',(-1.,0.,0.));
#528=DIRECTION('',(1.,0.,0.));
#529=DIRECTION('center_axis',(-1.,0.,-1.05735526154777E-16));
#530=DIRECTION('ref_axis',(-1.05735526154777E-16,0.,1.));
#531=DIRECTION('',(1.05735526154777E-16,0.,-1.));
#532=DIRECTION('',(-1.05735526154777E-16,0.,1.));
#533=DIRECTION('center_axis',(0.,1.,0.));
#534=DIRECTION('ref_axis',(1.,0.,0.));
#535=DIRECTION('center_axis',(0.,1.,0.));
#536=DIRECTION('ref_axis',(1.,0.,0.));
#537=CARTESIAN_POINT('',(0.,0.,0.));
#538=CARTESIAN_POINT('Origin',(-11.,0.,-9.5));
#539=CARTESIAN_POINT('',(-11.6,15.,-9.5));
#540=CARTESIAN_POINT('Origin',(-11.,15.,-9.5));
#541=CARTESIAN_POINT('',(-11.6,10.,-9.5));
#542=CARTESIAN_POINT('',(-11.6,0.,-9.5));
#543=CARTESIAN_POINT('Origin',(-11.,10.,-9.5));
#544=CARTESIAN_POINT('Origin',(-11.,15.,-9.5));
#545=CARTESIAN_POINT('Origin',(-11.,0.,9.5));
#546=CARTESIAN_POINT('',(-11.6,15.,9.5));
#547=CARTESIAN_POINT('Origin',(-11.,15.,9.5));
#548=CARTESIAN_POINT('',(-11.6,10.,9.5));
#549=CARTESIAN_POINT('',(-11.6,0.,9.5));
#550=CARTESIAN_POINT('Origin',(-11.,10.,9.5));
#551=CARTESIAN_POINT('Origin',(-11.,15.,9.5));
#552=CARTESIAN_POINT('Origin',(11.,0.,9.5));
#553=CARTESIAN_POINT('',(10.05,15.,9.5));
#554=CARTESIAN_POINT('Origin',(11.,15.,9.5));
#555=CARTESIAN_POINT('',(10.05,10.,9.5));
#556=CARTESIAN_POINT('',(10.05,0.,9.5));
#557=CARTESIAN_POINT('Origin',(11.,10.,9.5));
#558=CARTESIAN_POINT('Origin',(11.,15.,9.5));
#559=CARTESIAN_POINT('Origin',(11.,0.,-9.5));
#560=CARTESIAN_POINT('',(10.05,15.,-9.5));
#561=CARTESIAN_POINT('Origin',(11.,15.,-9.5));
#562=CARTESIAN_POINT('',(10.05,10.,-9.5));
#563=CARTESIAN_POINT('',(10.05,0.,-9.5));
#564=CARTESIAN_POINT('Origin',(11.,10.,-9.5));
#565=CARTESIAN_POINT('Origin',(11.,15.,-9.5));
#566=CARTESIAN_POINT('Origin',(-11.,0.,9.5));
#567=CARTESIAN_POINT('',(-13.,10.,9.5));
#568=CARTESIAN_POINT('Origin',(-11.,10.,9.5));
#569=CARTESIAN_POINT('',(-13.,0.,9.5));
#570=CARTESIAN_POINT('',(-13.,0.,9.5));
#571=CARTESIAN_POINT('',(-9.26794919243087,0.,10.4999999999996));
#572=CARTESIAN_POINT('Origin',(-11.,0.,9.5));
#573=CARTESIAN_POINT('',(-9.26794919243087,1.,10.4999999999996));
#574=CARTESIAN_POINT('',(-9.26794919243087,0.,10.4999999999996));
#575=CARTESIAN_POINT('',(-12.4999999999963,1.,8.17712434446351));
#576=CARTESIAN_POINT('Origin',(-11.,1.,9.5));
#577=CARTESIAN_POINT('',(-12.4999999999963,0.,8.17712434446351));
#578=CARTESIAN_POINT('',(-12.4999999999963,0.,8.17712434446351));
#579=CARTESIAN_POINT('Origin',(-11.,0.,9.5));
#580=CARTESIAN_POINT('Origin',(-11.,10.,9.5));
#581=CARTESIAN_POINT('Origin',(-11.,0.,-9.5));
#582=CARTESIAN_POINT('',(-13.,10.,-9.5));
#583=CARTESIAN_POINT('Origin',(-11.,10.,-9.5));
#584=CARTESIAN_POINT('',(-13.,0.,-9.5));
#585=CARTESIAN_POINT('',(-13.,0.,-9.5));
#586=CARTESIAN_POINT('',(-12.4999999999963,0.,-8.17712434446351));
#587=CARTESIAN_POINT('Origin',(-11.,0.,-9.5));
#588=CARTESIAN_POINT('',(-12.4999999999963,1.,-8.17712434446351));
#589=CARTESIAN_POINT('',(-12.4999999999963,0.,-8.17712434446351));
#590=CARTESIAN_POINT('',(-9.26794919243138,1.,-10.5000000000005));
#591=CARTESIAN_POINT('Origin',(-11.,1.,-9.5));
#592=CARTESIAN_POINT('',(-9.26794919243138,0.,-10.5000000000005));
#593=CARTESIAN_POINT('',(-9.26794919243138,0.,-10.5000000000005));
#594=CARTESIAN_POINT('Origin',(-11.,0.,-9.5));
#595=CARTESIAN_POINT('Origin',(-11.,10.,-9.5));
#596=CARTESIAN_POINT('Origin',(11.,0.,9.5));
#597=CARTESIAN_POINT('',(9.,10.,9.5));
#598=CARTESIAN_POINT('Origin',(11.,10.,9.5));
#599=CARTESIAN_POINT('',(9.,1.,9.5));
#600=CARTESIAN_POINT('',(9.,0.,9.5));
#601=CARTESIAN_POINT('',(9.26794919243087,1.,10.4999999999996));
#602=CARTESIAN_POINT('Origin',(11.,1.,9.5));
#603=CARTESIAN_POINT('',(9.26794919243087,0.,10.4999999999996));
#604=CARTESIAN_POINT('',(9.26794919243087,0.,10.4999999999996));
#605=CARTESIAN_POINT('',(12.5000000000037,0.,8.1771243444719));
#606=CARTESIAN_POINT('Origin',(11.,0.,9.5));
#607=CARTESIAN_POINT('',(12.5000000000037,1.,8.1771243444719));
#608=CARTESIAN_POINT('',(12.5000000000037,0.,8.1771243444719));
#609=CARTESIAN_POINT('Origin',(11.,1.,9.5));
#610=CARTESIAN_POINT('Origin',(11.,10.,9.5));
#611=CARTESIAN_POINT('Origin',(11.,0.,-9.5));
#612=CARTESIAN_POINT('',(9.,10.,-9.5));
#613=CARTESIAN_POINT('Origin',(11.,10.,-9.5));
#614=CARTESIAN_POINT('',(9.,1.,-9.5));
#615=CARTESIAN_POINT('',(9.,0.,-9.5));
#616=CARTESIAN_POINT('',(12.5000000000037,1.,-8.1771243444719));
#617=CARTESIAN_POINT('Origin',(11.,1.,-9.5));
#618=CARTESIAN_POINT('',(12.5000000000037,0.,-8.1771243444719));
#619=CARTESIAN_POINT('',(12.5000000000037,0.,-8.1771243444719));
#620=CARTESIAN_POINT('',(9.26794919243138,0.,-10.5000000000005));
#621=CARTESIAN_POINT('Origin',(11.,0.,-9.5));
#622=CARTESIAN_POINT('',(9.26794919243139,1.,-10.5000000000005));
#623=CARTESIAN_POINT('',(9.26794919243138,0.,-10.5000000000005));
#624=CARTESIAN_POINT('Origin',(11.,1.,-9.5));
#625=CARTESIAN_POINT('Origin',(11.,10.,-9.5));
#626=CARTESIAN_POINT('Origin',(9.26794919243138,0.,-10.5000000000005));
#627=CARTESIAN_POINT('',(-12.4999999999963,0.,-10.5000000000005));
#628=CARTESIAN_POINT('',(-12.4999999999963,1.,-10.5000000000005));
#629=CARTESIAN_POINT('Origin',(12.5000000000037,0.,8.1771243444719));
#630=CARTESIAN_POINT('',(12.5000000000037,0.,-10.5000000000005));
#631=CARTESIAN_POINT('',(12.5000000000037,1.,-10.5000000000005));
#632=CARTESIAN_POINT('Origin',(-9.26794919243087,0.,10.4999999999996));
#633=CARTESIAN_POINT('',(12.5000000000037,0.,10.4999999999996));
#634=CARTESIAN_POINT('',(12.5000000000037,1.,10.4999999999996));
#635=CARTESIAN_POINT('Origin',(-12.4999999999963,0.,-8.17712434446351));
#636=CARTESIAN_POINT('',(-12.4999999999963,0.,10.4999999999996));
#637=CARTESIAN_POINT('',(-12.4999999999963,1.,10.4999999999996));
#638=CARTESIAN_POINT('Origin',(0.,1.,0.));
#639=CARTESIAN_POINT('Origin',(0.,0.,0.));
#640=UNCERTAINTY_MEASURE_WITH_UNIT(LENGTH_MEASURE(0.01),#644,
'DISTANCE_ACCURACY_VALUE',
'Maximum model space distance between geometric entities at asserted c
onnectivities');
#641=UNCERTAINTY_MEASURE_WITH_UNIT(LENGTH_MEASURE(0.01),#644,
'DISTANCE_ACCURACY_VALUE',
'Maximum model space distance between geometric entities at asserted c
onnectivities');
#642=(
GEOMETRIC_REPRESENTATION_CONTEXT(3)
GLOBAL_UNCERTAINTY_ASSIGNED_CONTEXT((#640))
GLOBAL_UNIT_ASSIGNED_CONTEXT((#644,#646,#647))
REPRESENTATION_CONTEXT('','3D')
);
#643=(
GEOMETRIC_REPRESENTATION_CONTEXT(3)
GLOBAL_UNCERTAINTY_ASSIGNED_CONTEXT((#641))
GLOBAL_UNIT_ASSIGNED_CONTEXT((#644,#646,#647))
REPRESENTATION_CONTEXT('','3D')
);
#644=(
LENGTH_UNIT()
NAMED_UNIT(*)
SI_UNIT(.MILLI.,.METRE.)
);
#645=(
LENGTH_UNIT()
NAMED_UNIT(*)
SI_UNIT($,.METRE.)
);
#646=(
NAMED_UNIT(*)
PLANE_ANGLE_UNIT()
SI_UNIT($,.RADIAN.)
);
#647=(
NAMED_UNIT(*)
SI_UNIT($,.STERADIAN.)
SOLID_ANGLE_UNIT()
);
#648=SHAPE_DEFINITION_REPRESENTATION(#649,#650);
#649=PRODUCT_DEFINITION_SHAPE('',$,#652);
#650=SHAPE_REPRESENTATION('',(#372),#642);
#651=PRODUCT_DEFINITION_CONTEXT('part definition',#656,'design');
#652=PRODUCT_DEFINITION('SFA40 Mount','SFA40 Mount v6',#653,#651);
#653=PRODUCT_DEFINITION_FORMATION('',$,#658);
#654=PRODUCT_RELATED_PRODUCT_CATEGORY('SFA40 Mount v6','SFA40 Mount v6',
(#658));
#655=APPLICATION_PROTOCOL_DEFINITION('international standard',
'automotive_design',2009,#656);
#656=APPLICATION_CONTEXT(
'Core Data for Automotive Mechanical Design Process');
#657=PRODUCT_CONTEXT('part definition',#656,'mechanical');
#658=PRODUCT('SFA40 Mount','SFA40 Mount v6',
'(c) 2026 BionicBone. License: CERN-OHL-W-2.0. Source: github.com/bion
icbone/Workshop-Environment-Monitor',(#657));
#659=PRESENTATION_STYLE_ASSIGNMENT((#660));
#660=SURFACE_STYLE_USAGE(.BOTH.,#661);
#661=SURFACE_SIDE_STYLE('',(#662));
#662=SURFACE_STYLE_FILL_AREA(#663);
#663=FILL_AREA_STYLE('Steel - Satin',(#664));
#664=FILL_AREA_STYLE_COLOUR('Steel - Satin',#665);
#665=COLOUR_RGB('Steel - Satin',0.627450980392157,0.627450980392157,0.627450980392157);
ENDSEC;
END-ISO-10303-21;
