ISO-10303-21;
HEADER;
/* Generated by software containing ST-Developer
 * from STEP Tools, Inc. (www.steptools.com) 
 */

FILE_DESCRIPTION(
/* description */ (
'(c) 2026 BionicBone. License: CERN-OHL-W-2.0. Source: github.com/bion
icbone/Workshop-Environment-Monitor'),
/* implementation_level */ '2;1');

FILE_NAME(
/* name */ 'SGP30 SHT40 Mount v2.step',
/* time_stamp */ '2026-07-26T15:37:14+01:00',
/* author */ (''),
/* organization */ (''),
/* preprocessor_version */ 'ST-DEVELOPER v20.1',
/* originating_system */ 'Autodesk Translation Framework v15.8.0.0',
/* authorisation */ '');

FILE_SCHEMA (('AUTOMOTIVE_DESIGN { 1 0 10303 214 3 1 1 }'));
ENDSEC;

DATA;
#10=MECHANICAL_DESIGN_GEOMETRIC_PRESENTATION_REPRESENTATION('',(#13),#675);
#11=SHAPE_REPRESENTATION_RELATIONSHIP('SRR','None',#682,#12);
#12=ADVANCED_BREP_SHAPE_REPRESENTATION('',(#14),#674);
#13=STYLED_ITEM('',(#691),#14);
#14=MANIFOLD_SOLID_BREP('Body1',#391);
#15=FACE_BOUND('',#77,.T.);
#16=FACE_BOUND('',#80,.T.);
#17=FACE_BOUND('',#83,.T.);
#18=FACE_BOUND('',#86,.T.);
#19=FACE_BOUND('',#96,.T.);
#20=FACE_BOUND('',#97,.T.);
#21=FACE_BOUND('',#98,.T.);
#22=FACE_BOUND('',#99,.T.);
#23=PLANE('',#408);
#24=PLANE('',#412);
#25=PLANE('',#416);
#26=PLANE('',#420);
#27=PLANE('',#424);
#28=PLANE('',#428);
#29=PLANE('',#432);
#30=PLANE('',#436);
#31=PLANE('',#437);
#32=PLANE('',#438);
#33=PLANE('',#439);
#34=PLANE('',#440);
#35=PLANE('',#441);
#36=PLANE('',#442);
#37=PLANE('',#443);
#38=PLANE('',#444);
#39=PLANE('',#445);
#40=PLANE('',#446);
#41=FACE_OUTER_BOUND('',#67,.T.);
#42=FACE_OUTER_BOUND('',#68,.T.);
#43=FACE_OUTER_BOUND('',#69,.T.);
#44=FACE_OUTER_BOUND('',#70,.T.);
#45=FACE_OUTER_BOUND('',#71,.T.);
#46=FACE_OUTER_BOUND('',#72,.T.);
#47=FACE_OUTER_BOUND('',#73,.T.);
#48=FACE_OUTER_BOUND('',#74,.T.);
#49=FACE_OUTER_BOUND('',#75,.T.);
#50=FACE_OUTER_BOUND('',#76,.T.);
#51=FACE_OUTER_BOUND('',#78,.T.);
#52=FACE_OUTER_BOUND('',#79,.T.);
#53=FACE_OUTER_BOUND('',#81,.T.);
#54=FACE_OUTER_BOUND('',#82,.T.);
#55=FACE_OUTER_BOUND('',#84,.T.);
#56=FACE_OUTER_BOUND('',#85,.T.);
#57=FACE_OUTER_BOUND('',#87,.T.);
#58=FACE_OUTER_BOUND('',#88,.T.);
#59=FACE_OUTER_BOUND('',#89,.T.);
#60=FACE_OUTER_BOUND('',#90,.T.);
#61=FACE_OUTER_BOUND('',#91,.T.);
#62=FACE_OUTER_BOUND('',#92,.T.);
#63=FACE_OUTER_BOUND('',#93,.T.);
#64=FACE_OUTER_BOUND('',#94,.T.);
#65=FACE_OUTER_BOUND('',#95,.T.);
#66=FACE_OUTER_BOUND('',#100,.T.);
#67=EDGE_LOOP('',(#261,#262,#263,#264));
#68=EDGE_LOOP('',(#265));
#69=EDGE_LOOP('',(#266,#267,#268,#269));
#70=EDGE_LOOP('',(#270));
#71=EDGE_LOOP('',(#271,#272,#273,#274));
#72=EDGE_LOOP('',(#275));
#73=EDGE_LOOP('',(#276,#277,#278,#279));
#74=EDGE_LOOP('',(#280));
#75=EDGE_LOOP('',(#281,#282,#283,#284));
#76=EDGE_LOOP('',(#285));
#77=EDGE_LOOP('',(#286));
#78=EDGE_LOOP('',(#287,#288,#289,#290));
#79=EDGE_LOOP('',(#291));
#80=EDGE_LOOP('',(#292));
#81=EDGE_LOOP('',(#293,#294,#295,#296));
#82=EDGE_LOOP('',(#297));
#83=EDGE_LOOP('',(#298));
#84=EDGE_LOOP('',(#299,#300,#301,#302));
#85=EDGE_LOOP('',(#303));
#86=EDGE_LOOP('',(#304));
#87=EDGE_LOOP('',(#305,#306,#307,#308));
#88=EDGE_LOOP('',(#309,#310,#311,#312));
#89=EDGE_LOOP('',(#313,#314,#315,#316));
#90=EDGE_LOOP('',(#317,#318,#319,#320));
#91=EDGE_LOOP('',(#321,#322,#323,#324));
#92=EDGE_LOOP('',(#325,#326,#327,#328));
#93=EDGE_LOOP('',(#329,#330,#331,#332));
#94=EDGE_LOOP('',(#333,#334,#335,#336));
#95=EDGE_LOOP('',(#337,#338,#339,#340,#341,#342,#343,#344));
#96=EDGE_LOOP('',(#345));
#97=EDGE_LOOP('',(#346));
#98=EDGE_LOOP('',(#347));
#99=EDGE_LOOP('',(#348));
#100=EDGE_LOOP('',(#349,#350,#351,#352,#353,#354,#355,#356));
#101=LINE('',#570,#133);
#102=LINE('',#577,#134);
#103=LINE('',#584,#135);
#104=LINE('',#591,#136);
#105=LINE('',#598,#137);
#106=LINE('',#605,#138);
#107=LINE('',#612,#139);
#108=LINE('',#619,#140);
#109=LINE('',#625,#141);
#110=LINE('',#627,#142);
#111=LINE('',#629,#143);
#112=LINE('',#630,#144);
#113=LINE('',#633,#145);
#114=LINE('',#635,#146);
#115=LINE('',#636,#147);
#116=LINE('',#639,#148);
#117=LINE('',#641,#149);
#118=LINE('',#642,#150);
#119=LINE('',#645,#151);
#120=LINE('',#647,#152);
#121=LINE('',#648,#153);
#122=LINE('',#651,#154);
#123=LINE('',#653,#155);
#124=LINE('',#654,#156);
#125=LINE('',#657,#157);
#126=LINE('',#659,#158);
#127=LINE('',#660,#159);
#128=LINE('',#663,#160);
#129=LINE('',#665,#161);
#130=LINE('',#666,#162);
#131=LINE('',#668,#163);
#132=LINE('',#669,#164);
#133=VECTOR('',#453,1.25);
#134=VECTOR('',#462,1.25);
#135=VECTOR('',#471,1.25);
#136=VECTOR('',#480,1.25);
#137=VECTOR('',#489,2.25);
#138=VECTOR('',#498,2.25);
#139=VECTOR('',#507,2.25);
#140=VECTOR('',#516,2.25);
#141=VECTOR('',#523,10.);
#142=VECTOR('',#524,10.);
#143=VECTOR('',#525,10.);
#144=VECTOR('',#526,10.);
#145=VECTOR('',#529,10.);
#146=VECTOR('',#530,10.);
#147=VECTOR('',#531,10.);
#148=VECTOR('',#534,10.);
#149=VECTOR('',#535,10.);
#150=VECTOR('',#536,10.);
#151=VECTOR('',#539,10.);
#152=VECTOR('',#540,10.);
#153=VECTOR('',#541,10.);
#154=VECTOR('',#544,10.);
#155=VECTOR('',#545,10.);
#156=VECTOR('',#546,10.);
#157=VECTOR('',#549,10.);
#158=VECTOR('',#550,10.);
#159=VECTOR('',#551,10.);
#160=VECTOR('',#554,10.);
#161=VECTOR('',#555,10.);
#162=VECTOR('',#556,10.);
#163=VECTOR('',#559,10.);
#164=VECTOR('',#560,10.);
#165=CIRCLE('',#406,1.25);
#166=CIRCLE('',#407,1.25);
#167=CIRCLE('',#410,1.25);
#168=CIRCLE('',#411,1.25);
#169=CIRCLE('',#414,1.25);
#170=CIRCLE('',#415,1.25);
#171=CIRCLE('',#418,1.25);
#172=CIRCLE('',#419,1.25);
#173=CIRCLE('',#422,2.25);
#174=CIRCLE('',#423,2.25);
#175=CIRCLE('',#426,2.25);
#176=CIRCLE('',#427,2.25);
#177=CIRCLE('',#430,2.25);
#178=CIRCLE('',#431,2.25);
#179=CIRCLE('',#434,2.25);
#180=CIRCLE('',#435,2.25);
#181=VERTEX_POINT('',#567);
#182=VERTEX_POINT('',#569);
#183=VERTEX_POINT('',#574);
#184=VERTEX_POINT('',#576);
#185=VERTEX_POINT('',#581);
#186=VERTEX_POINT('',#583);
#187=VERTEX_POINT('',#588);
#188=VERTEX_POINT('',#590);
#189=VERTEX_POINT('',#595);
#190=VERTEX_POINT('',#597);
#191=VERTEX_POINT('',#602);
#192=VERTEX_POINT('',#604);
#193=VERTEX_POINT('',#609);
#194=VERTEX_POINT('',#611);
#195=VERTEX_POINT('',#616);
#196=VERTEX_POINT('',#618);
#197=VERTEX_POINT('',#623);
#198=VERTEX_POINT('',#624);
#199=VERTEX_POINT('',#626);
#200=VERTEX_POINT('',#628);
#201=VERTEX_POINT('',#632);
#202=VERTEX_POINT('',#634);
#203=VERTEX_POINT('',#638);
#204=VERTEX_POINT('',#640);
#205=VERTEX_POINT('',#644);
#206=VERTEX_POINT('',#646);
#207=VERTEX_POINT('',#650);
#208=VERTEX_POINT('',#652);
#209=VERTEX_POINT('',#656);
#210=VERTEX_POINT('',#658);
#211=VERTEX_POINT('',#662);
#212=VERTEX_POINT('',#664);
#213=EDGE_CURVE('',#181,#181,#165,.T.);
#214=EDGE_CURVE('',#181,#182,#101,.T.);
#215=EDGE_CURVE('',#182,#182,#166,.T.);
#216=EDGE_CURVE('',#183,#183,#167,.T.);
#217=EDGE_CURVE('',#183,#184,#102,.T.);
#218=EDGE_CURVE('',#184,#184,#168,.T.);
#219=EDGE_CURVE('',#185,#185,#169,.T.);
#220=EDGE_CURVE('',#185,#186,#103,.T.);
#221=EDGE_CURVE('',#186,#186,#170,.T.);
#222=EDGE_CURVE('',#187,#187,#171,.T.);
#223=EDGE_CURVE('',#187,#188,#104,.T.);
#224=EDGE_CURVE('',#188,#188,#172,.T.);
#225=EDGE_CURVE('',#189,#189,#173,.T.);
#226=EDGE_CURVE('',#189,#190,#105,.T.);
#227=EDGE_CURVE('',#190,#190,#174,.T.);
#228=EDGE_CURVE('',#191,#191,#175,.T.);
#229=EDGE_CURVE('',#191,#192,#106,.T.);
#230=EDGE_CURVE('',#192,#192,#176,.T.);
#231=EDGE_CURVE('',#193,#193,#177,.T.);
#232=EDGE_CURVE('',#193,#194,#107,.T.);
#233=EDGE_CURVE('',#194,#194,#178,.T.);
#234=EDGE_CURVE('',#195,#195,#179,.T.);
#235=EDGE_CURVE('',#195,#196,#108,.T.);
#236=EDGE_CURVE('',#196,#196,#180,.T.);
#237=EDGE_CURVE('',#197,#198,#109,.T.);
#238=EDGE_CURVE('',#197,#199,#110,.T.);
#239=EDGE_CURVE('',#200,#199,#111,.T.);
#240=EDGE_CURVE('',#198,#200,#112,.T.);
#241=EDGE_CURVE('',#198,#201,#113,.T.);
#242=EDGE_CURVE('',#202,#200,#114,.T.);
#243=EDGE_CURVE('',#201,#202,#115,.T.);
#244=EDGE_CURVE('',#201,#203,#116,.T.);
#245=EDGE_CURVE('',#204,#202,#117,.T.);
#246=EDGE_CURVE('',#203,#204,#118,.T.);
#247=EDGE_CURVE('',#203,#205,#119,.T.);
#248=EDGE_CURVE('',#206,#204,#120,.T.);
#249=EDGE_CURVE('',#205,#206,#121,.T.);
#250=EDGE_CURVE('',#205,#207,#122,.T.);
#251=EDGE_CURVE('',#208,#206,#123,.T.);
#252=EDGE_CURVE('',#207,#208,#124,.T.);
#253=EDGE_CURVE('',#207,#209,#125,.T.);
#254=EDGE_CURVE('',#210,#208,#126,.T.);
#255=EDGE_CURVE('',#209,#210,#127,.T.);
#256=EDGE_CURVE('',#209,#211,#128,.T.);
#257=EDGE_CURVE('',#212,#210,#129,.T.);
#258=EDGE_CURVE('',#211,#212,#130,.T.);
#259=EDGE_CURVE('',#211,#197,#131,.T.);
#260=EDGE_CURVE('',#199,#212,#132,.T.);
#261=ORIENTED_EDGE('',*,*,#213,.F.);
#262=ORIENTED_EDGE('',*,*,#214,.T.);
#263=ORIENTED_EDGE('',*,*,#215,.F.);
#264=ORIENTED_EDGE('',*,*,#214,.F.);
#265=ORIENTED_EDGE('',*,*,#213,.T.);
#266=ORIENTED_EDGE('',*,*,#216,.F.);
#267=ORIENTED_EDGE('',*,*,#217,.T.);
#268=ORIENTED_EDGE('',*,*,#218,.F.);
#269=ORIENTED_EDGE('',*,*,#217,.F.);
#270=ORIENTED_EDGE('',*,*,#216,.T.);
#271=ORIENTED_EDGE('',*,*,#219,.F.);
#272=ORIENTED_EDGE('',*,*,#220,.T.);
#273=ORIENTED_EDGE('',*,*,#221,.F.);
#274=ORIENTED_EDGE('',*,*,#220,.F.);
#275=ORIENTED_EDGE('',*,*,#219,.T.);
#276=ORIENTED_EDGE('',*,*,#222,.F.);
#277=ORIENTED_EDGE('',*,*,#223,.T.);
#278=ORIENTED_EDGE('',*,*,#224,.F.);
#279=ORIENTED_EDGE('',*,*,#223,.F.);
#280=ORIENTED_EDGE('',*,*,#222,.T.);
#281=ORIENTED_EDGE('',*,*,#225,.F.);
#282=ORIENTED_EDGE('',*,*,#226,.T.);
#283=ORIENTED_EDGE('',*,*,#227,.F.);
#284=ORIENTED_EDGE('',*,*,#226,.F.);
#285=ORIENTED_EDGE('',*,*,#225,.T.);
#286=ORIENTED_EDGE('',*,*,#224,.T.);
#287=ORIENTED_EDGE('',*,*,#228,.F.);
#288=ORIENTED_EDGE('',*,*,#229,.T.);
#289=ORIENTED_EDGE('',*,*,#230,.F.);
#290=ORIENTED_EDGE('',*,*,#229,.F.);
#291=ORIENTED_EDGE('',*,*,#228,.T.);
#292=ORIENTED_EDGE('',*,*,#221,.T.);
#293=ORIENTED_EDGE('',*,*,#231,.F.);
#294=ORIENTED_EDGE('',*,*,#232,.T.);
#295=ORIENTED_EDGE('',*,*,#233,.F.);
#296=ORIENTED_EDGE('',*,*,#232,.F.);
#297=ORIENTED_EDGE('',*,*,#231,.T.);
#298=ORIENTED_EDGE('',*,*,#218,.T.);
#299=ORIENTED_EDGE('',*,*,#234,.F.);
#300=ORIENTED_EDGE('',*,*,#235,.T.);
#301=ORIENTED_EDGE('',*,*,#236,.F.);
#302=ORIENTED_EDGE('',*,*,#235,.F.);
#303=ORIENTED_EDGE('',*,*,#234,.T.);
#304=ORIENTED_EDGE('',*,*,#215,.T.);
#305=ORIENTED_EDGE('',*,*,#237,.F.);
#306=ORIENTED_EDGE('',*,*,#238,.T.);
#307=ORIENTED_EDGE('',*,*,#239,.F.);
#308=ORIENTED_EDGE('',*,*,#240,.F.);
#309=ORIENTED_EDGE('',*,*,#241,.F.);
#310=ORIENTED_EDGE('',*,*,#240,.T.);
#311=ORIENTED_EDGE('',*,*,#242,.F.);
#312=ORIENTED_EDGE('',*,*,#243,.F.);
#313=ORIENTED_EDGE('',*,*,#244,.F.);
#314=ORIENTED_EDGE('',*,*,#243,.T.);
#315=ORIENTED_EDGE('',*,*,#245,.F.);
#316=ORIENTED_EDGE('',*,*,#246,.F.);
#317=ORIENTED_EDGE('',*,*,#247,.F.);
#318=ORIENTED_EDGE('',*,*,#246,.T.);
#319=ORIENTED_EDGE('',*,*,#248,.F.);
#320=ORIENTED_EDGE('',*,*,#249,.F.);
#321=ORIENTED_EDGE('',*,*,#250,.F.);
#322=ORIENTED_EDGE('',*,*,#249,.T.);
#323=ORIENTED_EDGE('',*,*,#251,.F.);
#324=ORIENTED_EDGE('',*,*,#252,.F.);
#325=ORIENTED_EDGE('',*,*,#253,.F.);
#326=ORIENTED_EDGE('',*,*,#252,.T.);
#327=ORIENTED_EDGE('',*,*,#254,.F.);
#328=ORIENTED_EDGE('',*,*,#255,.F.);
#329=ORIENTED_EDGE('',*,*,#256,.F.);
#330=ORIENTED_EDGE('',*,*,#255,.T.);
#331=ORIENTED_EDGE('',*,*,#257,.F.);
#332=ORIENTED_EDGE('',*,*,#258,.F.);
#333=ORIENTED_EDGE('',*,*,#259,.F.);
#334=ORIENTED_EDGE('',*,*,#258,.T.);
#335=ORIENTED_EDGE('',*,*,#260,.F.);
#336=ORIENTED_EDGE('',*,*,#238,.F.);
#337=ORIENTED_EDGE('',*,*,#260,.T.);
#338=ORIENTED_EDGE('',*,*,#257,.T.);
#339=ORIENTED_EDGE('',*,*,#254,.T.);
#340=ORIENTED_EDGE('',*,*,#251,.T.);
#341=ORIENTED_EDGE('',*,*,#248,.T.);
#342=ORIENTED_EDGE('',*,*,#245,.T.);
#343=ORIENTED_EDGE('',*,*,#242,.T.);
#344=ORIENTED_EDGE('',*,*,#239,.T.);
#345=ORIENTED_EDGE('',*,*,#233,.T.);
#346=ORIENTED_EDGE('',*,*,#236,.T.);
#347=ORIENTED_EDGE('',*,*,#227,.T.);
#348=ORIENTED_EDGE('',*,*,#230,.T.);
#349=ORIENTED_EDGE('',*,*,#259,.T.);
#350=ORIENTED_EDGE('',*,*,#237,.T.);
#351=ORIENTED_EDGE('',*,*,#241,.T.);
#352=ORIENTED_EDGE('',*,*,#244,.T.);
#353=ORIENTED_EDGE('',*,*,#247,.T.);
#354=ORIENTED_EDGE('',*,*,#250,.T.);
#355=ORIENTED_EDGE('',*,*,#253,.T.);
#356=ORIENTED_EDGE('',*,*,#256,.T.);
#357=CYLINDRICAL_SURFACE('',#405,1.25);
#358=CYLINDRICAL_SURFACE('',#409,1.25);
#359=CYLINDRICAL_SURFACE('',#413,1.25);
#360=CYLINDRICAL_SURFACE('',#417,1.25);
#361=CYLINDRICAL_SURFACE('',#421,2.25);
#362=CYLINDRICAL_SURFACE('',#425,2.25);
#363=CYLINDRICAL_SURFACE('',#429,2.25);
#364=CYLINDRICAL_SURFACE('',#433,2.25);
#365=ADVANCED_FACE('',(#41),#357,.T.);
#366=ADVANCED_FACE('',(#42),#23,.T.);
#367=ADVANCED_FACE('',(#43),#358,.T.);
#368=ADVANCED_FACE('',(#44),#24,.T.);
#369=ADVANCED_FACE('',(#45),#359,.T.);
#370=ADVANCED_FACE('',(#46),#25,.T.);
#371=ADVANCED_FACE('',(#47),#360,.T.);
#372=ADVANCED_FACE('',(#48),#26,.T.);
#373=ADVANCED_FACE('',(#49),#361,.T.);
#374=ADVANCED_FACE('',(#50,#15),#27,.T.);
#375=ADVANCED_FACE('',(#51),#362,.T.);
#376=ADVANCED_FACE('',(#52,#16),#28,.T.);
#377=ADVANCED_FACE('',(#53),#363,.T.);
#378=ADVANCED_FACE('',(#54,#17),#29,.T.);
#379=ADVANCED_FACE('',(#55),#364,.T.);
#380=ADVANCED_FACE('',(#56,#18),#30,.T.);
#381=ADVANCED_FACE('',(#57),#31,.T.);
#382=ADVANCED_FACE('',(#58),#32,.T.);
#383=ADVANCED_FACE('',(#59),#33,.T.);
#384=ADVANCED_FACE('',(#60),#34,.T.);
#385=ADVANCED_FACE('',(#61),#35,.T.);
#386=ADVANCED_FACE('',(#62),#36,.T.);
#387=ADVANCED_FACE('',(#63),#37,.T.);
#388=ADVANCED_FACE('',(#64),#38,.T.);
#389=ADVANCED_FACE('',(#65,#19,#20,#21,#22),#39,.T.);
#390=ADVANCED_FACE('',(#66),#40,.F.);
#391=CLOSED_SHELL('',(#365,#366,#367,#368,#369,#370,#371,#372,#373,#374,
#375,#376,#377,#378,#379,#380,#381,#382,#383,#384,#385,#386,#387,#388,#389,
#390));
#392=DERIVED_UNIT_ELEMENT(#394,1.);
#393=DERIVED_UNIT_ELEMENT(#677,-3.);
#394=(
MASS_UNIT()
NAMED_UNIT(*)
SI_UNIT(.KILO.,.GRAM.)
);
#395=DERIVED_UNIT((#392,#393));
#396=MEASURE_REPRESENTATION_ITEM('density measure',
POSITIVE_RATIO_MEASURE(7850.),#395);
#397=PROPERTY_DEFINITION_REPRESENTATION(#402,#399);
#398=PROPERTY_DEFINITION_REPRESENTATION(#403,#400);
#399=REPRESENTATION('material name',(#401),#674);
#400=REPRESENTATION('density',(#396),#674);
#401=DESCRIPTIVE_REPRESENTATION_ITEM('Steel','Steel');
#402=PROPERTY_DEFINITION('material property','material name',#684);
#403=PROPERTY_DEFINITION('material property','density of part',#684);
#404=AXIS2_PLACEMENT_3D('',#565,#447,#448);
#405=AXIS2_PLACEMENT_3D('',#566,#449,#450);
#406=AXIS2_PLACEMENT_3D('',#568,#451,#452);
#407=AXIS2_PLACEMENT_3D('',#571,#454,#455);
#408=AXIS2_PLACEMENT_3D('',#572,#456,#457);
#409=AXIS2_PLACEMENT_3D('',#573,#458,#459);
#410=AXIS2_PLACEMENT_3D('',#575,#460,#461);
#411=AXIS2_PLACEMENT_3D('',#578,#463,#464);
#412=AXIS2_PLACEMENT_3D('',#579,#465,#466);
#413=AXIS2_PLACEMENT_3D('',#580,#467,#468);
#414=AXIS2_PLACEMENT_3D('',#582,#469,#470);
#415=AXIS2_PLACEMENT_3D('',#585,#472,#473);
#416=AXIS2_PLACEMENT_3D('',#586,#474,#475);
#417=AXIS2_PLACEMENT_3D('',#587,#476,#477);
#418=AXIS2_PLACEMENT_3D('',#589,#478,#479);
#419=AXIS2_PLACEMENT_3D('',#592,#481,#482);
#420=AXIS2_PLACEMENT_3D('',#593,#483,#484);
#421=AXIS2_PLACEMENT_3D('',#594,#485,#486);
#422=AXIS2_PLACEMENT_3D('',#596,#487,#488);
#423=AXIS2_PLACEMENT_3D('',#599,#490,#491);
#424=AXIS2_PLACEMENT_3D('',#600,#492,#493);
#425=AXIS2_PLACEMENT_3D('',#601,#494,#495);
#426=AXIS2_PLACEMENT_3D('',#603,#496,#497);
#427=AXIS2_PLACEMENT_3D('',#606,#499,#500);
#428=AXIS2_PLACEMENT_3D('',#607,#501,#502);
#429=AXIS2_PLACEMENT_3D('',#608,#503,#504);
#430=AXIS2_PLACEMENT_3D('',#610,#505,#506);
#431=AXIS2_PLACEMENT_3D('',#613,#508,#509);
#432=AXIS2_PLACEMENT_3D('',#614,#510,#511);
#433=AXIS2_PLACEMENT_3D('',#615,#512,#513);
#434=AXIS2_PLACEMENT_3D('',#617,#514,#515);
#435=AXIS2_PLACEMENT_3D('',#620,#517,#518);
#436=AXIS2_PLACEMENT_3D('',#621,#519,#520);
#437=AXIS2_PLACEMENT_3D('',#622,#521,#522);
#438=AXIS2_PLACEMENT_3D('',#631,#527,#528);
#439=AXIS2_PLACEMENT_3D('',#637,#532,#533);
#440=AXIS2_PLACEMENT_3D('',#643,#537,#538);
#441=AXIS2_PLACEMENT_3D('',#649,#542,#543);
#442=AXIS2_PLACEMENT_3D('',#655,#547,#548);
#443=AXIS2_PLACEMENT_3D('',#661,#552,#553);
#444=AXIS2_PLACEMENT_3D('',#667,#557,#558);
#445=AXIS2_PLACEMENT_3D('',#670,#561,#562);
#446=AXIS2_PLACEMENT_3D('',#671,#563,#564);
#447=DIRECTION('axis',(0.,0.,1.));
#448=DIRECTION('refdir',(1.,0.,0.));
#449=DIRECTION('center_axis',(0.,1.,0.));
#450=DIRECTION('ref_axis',(1.,0.,0.));
#451=DIRECTION('center_axis',(0.,1.,0.));
#452=DIRECTION('ref_axis',(1.,0.,0.));
#453=DIRECTION('',(0.,-1.,0.));
#454=DIRECTION('center_axis',(0.,-1.,0.));
#455=DIRECTION('ref_axis',(1.,0.,0.));
#456=DIRECTION('center_axis',(0.,1.,0.));
#457=DIRECTION('ref_axis',(1.,0.,0.));
#458=DIRECTION('center_axis',(0.,1.,0.));
#459=DIRECTION('ref_axis',(1.,0.,0.));
#460=DIRECTION('center_axis',(0.,1.,0.));
#461=DIRECTION('ref_axis',(1.,0.,0.));
#462=DIRECTION('',(0.,-1.,0.));
#463=DIRECTION('center_axis',(0.,-1.,0.));
#464=DIRECTION('ref_axis',(1.,0.,0.));
#465=DIRECTION('center_axis',(0.,1.,0.));
#466=DIRECTION('ref_axis',(1.,0.,0.));
#467=DIRECTION('center_axis',(0.,1.,0.));
#468=DIRECTION('ref_axis',(1.,0.,0.));
#469=DIRECTION('center_axis',(0.,1.,0.));
#470=DIRECTION('ref_axis',(1.,0.,0.));
#471=DIRECTION('',(0.,-1.,0.));
#472=DIRECTION('center_axis',(0.,-1.,0.));
#473=DIRECTION('ref_axis',(1.,0.,0.));
#474=DIRECTION('center_axis',(0.,1.,0.));
#475=DIRECTION('ref_axis',(1.,0.,0.));
#476=DIRECTION('center_axis',(0.,1.,0.));
#477=DIRECTION('ref_axis',(1.,0.,0.));
#478=DIRECTION('center_axis',(0.,1.,0.));
#479=DIRECTION('ref_axis',(1.,0.,0.));
#480=DIRECTION('',(0.,-1.,0.));
#481=DIRECTION('center_axis',(0.,-1.,0.));
#482=DIRECTION('ref_axis',(1.,0.,0.));
#483=DIRECTION('center_axis',(0.,1.,0.));
#484=DIRECTION('ref_axis',(1.,0.,0.));
#485=DIRECTION('center_axis',(0.,1.,0.));
#486=DIRECTION('ref_axis',(1.,0.,0.));
#487=DIRECTION('center_axis',(0.,1.,0.));
#488=DIRECTION('ref_axis',(1.,0.,0.));
#489=DIRECTION('',(0.,-1.,0.));
#490=DIRECTION('center_axis',(0.,-1.,0.));
#491=DIRECTION('ref_axis',(1.,0.,0.));
#492=DIRECTION('center_axis',(0.,1.,0.));
#493=DIRECTION('ref_axis',(1.,0.,0.));
#494=DIRECTION('center_axis',(0.,1.,0.));
#495=DIRECTION('ref_axis',(1.,0.,0.));
#496=DIRECTION('center_axis',(0.,1.,0.));
#497=DIRECTION('ref_axis',(1.,0.,0.));
#498=DIRECTION('',(0.,-1.,0.));
#499=DIRECTION('center_axis',(0.,-1.,0.));
#500=DIRECTION('ref_axis',(1.,0.,0.));
#501=DIRECTION('center_axis',(0.,1.,0.));
#502=DIRECTION('ref_axis',(1.,0.,0.));
#503=DIRECTION('center_axis',(0.,1.,0.));
#504=DIRECTION('ref_axis',(1.,0.,0.));
#505=DIRECTION('center_axis',(0.,1.,0.));
#506=DIRECTION('ref_axis',(1.,0.,0.));
#507=DIRECTION('',(0.,-1.,0.));
#508=DIRECTION('center_axis',(0.,-1.,0.));
#509=DIRECTION('ref_axis',(1.,0.,0.));
#510=DIRECTION('center_axis',(0.,1.,0.));
#511=DIRECTION('ref_axis',(1.,0.,0.));
#512=DIRECTION('center_axis',(0.,1.,0.));
#513=DIRECTION('ref_axis',(1.,0.,0.));
#514=DIRECTION('center_axis',(0.,1.,0.));
#515=DIRECTION('ref_axis',(1.,0.,0.));
#516=DIRECTION('',(0.,-1.,0.));
#517=DIRECTION('center_axis',(0.,-1.,0.));
#518=DIRECTION('ref_axis',(1.,0.,0.));
#519=DIRECTION('center_axis',(0.,1.,0.));
#520=DIRECTION('ref_axis',(1.,0.,0.));
#521=DIRECTION('center_axis',(1.,0.,0.));
#522=DIRECTION('ref_axis',(0.,0.,-1.));
#523=DIRECTION('',(0.,0.,1.));
#524=DIRECTION('',(0.,1.,0.));
#525=DIRECTION('',(0.,0.,-1.));
#526=DIRECTION('',(0.,1.,0.));
#527=DIRECTION('center_axis',(0.,0.,1.));
#528=DIRECTION('ref_axis',(1.,0.,0.));
#529=DIRECTION('',(-1.,0.,0.));
#530=DIRECTION('',(1.,0.,0.));
#531=DIRECTION('',(0.,1.,0.));
#532=DIRECTION('center_axis',(-1.,0.,0.));
#533=DIRECTION('ref_axis',(0.,0.,1.));
#534=DIRECTION('',(0.,0.,-1.));
#535=DIRECTION('',(0.,0.,1.));
#536=DIRECTION('',(0.,1.,0.));
#537=DIRECTION('center_axis',(0.,0.,-1.));
#538=DIRECTION('ref_axis',(-1.,0.,0.));
#539=DIRECTION('',(1.,0.,0.));
#540=DIRECTION('',(-1.,0.,0.));
#541=DIRECTION('',(0.,1.,0.));
#542=DIRECTION('center_axis',(1.,0.,0.));
#543=DIRECTION('ref_axis',(0.,0.,-1.));
#544=DIRECTION('',(0.,0.,1.));
#545=DIRECTION('',(0.,0.,-1.));
#546=DIRECTION('',(0.,1.,0.));
#547=DIRECTION('center_axis',(0.,0.,1.));
#548=DIRECTION('ref_axis',(1.,0.,0.));
#549=DIRECTION('',(-1.,0.,0.));
#550=DIRECTION('',(1.,0.,0.));
#551=DIRECTION('',(0.,1.,0.));
#552=DIRECTION('center_axis',(-1.,0.,0.));
#553=DIRECTION('ref_axis',(0.,0.,1.));
#554=DIRECTION('',(0.,0.,-1.));
#555=DIRECTION('',(0.,0.,1.));
#556=DIRECTION('',(0.,1.,0.));
#557=DIRECTION('center_axis',(0.,0.,1.));
#558=DIRECTION('ref_axis',(1.,0.,0.));
#559=DIRECTION('',(-1.,0.,0.));
#560=DIRECTION('',(1.,0.,0.));
#561=DIRECTION('center_axis',(0.,1.,0.));
#562=DIRECTION('ref_axis',(1.,0.,0.));
#563=DIRECTION('center_axis',(0.,1.,0.));
#564=DIRECTION('ref_axis',(1.,0.,0.));
#565=CARTESIAN_POINT('',(0.,0.,0.));
#566=CARTESIAN_POINT('Origin',(10.5,0.,-6.5));
#567=CARTESIAN_POINT('',(9.25,13.,-6.5));
#568=CARTESIAN_POINT('Origin',(10.5,13.,-6.5));
#569=CARTESIAN_POINT('',(9.25,10.,-6.5));
#570=CARTESIAN_POINT('',(9.25,0.,-6.5));
#571=CARTESIAN_POINT('Origin',(10.5,10.,-6.5));
#572=CARTESIAN_POINT('Origin',(10.5,13.,-6.5));
#573=CARTESIAN_POINT('Origin',(-10.5,0.,-6.5));
#574=CARTESIAN_POINT('',(-11.75,13.,-6.5));
#575=CARTESIAN_POINT('Origin',(-10.5,13.,-6.5));
#576=CARTESIAN_POINT('',(-11.75,10.,-6.5));
#577=CARTESIAN_POINT('',(-11.75,0.,-6.5));
#578=CARTESIAN_POINT('Origin',(-10.5,10.,-6.5));
#579=CARTESIAN_POINT('Origin',(-10.5,13.,-6.5));
#580=CARTESIAN_POINT('Origin',(10.5,0.,6.5));
#581=CARTESIAN_POINT('',(9.25,13.,6.5));
#582=CARTESIAN_POINT('Origin',(10.5,13.,6.5));
#583=CARTESIAN_POINT('',(9.25,10.,6.5));
#584=CARTESIAN_POINT('',(9.25,0.,6.5));
#585=CARTESIAN_POINT('Origin',(10.5,10.,6.5));
#586=CARTESIAN_POINT('Origin',(10.5,13.,6.5));
#587=CARTESIAN_POINT('Origin',(-10.5,0.,6.5));
#588=CARTESIAN_POINT('',(-11.75,13.,6.5));
#589=CARTESIAN_POINT('Origin',(-10.5,13.,6.5));
#590=CARTESIAN_POINT('',(-11.75,10.,6.5));
#591=CARTESIAN_POINT('',(-11.75,0.,6.5));
#592=CARTESIAN_POINT('Origin',(-10.5,10.,6.5));
#593=CARTESIAN_POINT('Origin',(-10.5,13.,6.5));
#594=CARTESIAN_POINT('Origin',(-10.5,0.,6.5));
#595=CARTESIAN_POINT('',(-12.75,10.,6.5));
#596=CARTESIAN_POINT('Origin',(-10.5,10.,6.5));
#597=CARTESIAN_POINT('',(-12.75,1.6,6.5));
#598=CARTESIAN_POINT('',(-12.75,0.,6.5));
#599=CARTESIAN_POINT('Origin',(-10.5,1.6,6.5));
#600=CARTESIAN_POINT('Origin',(-10.5,10.,6.5));
#601=CARTESIAN_POINT('Origin',(10.5,0.,6.5));
#602=CARTESIAN_POINT('',(8.25,10.,6.5));
#603=CARTESIAN_POINT('Origin',(10.5,10.,6.5));
#604=CARTESIAN_POINT('',(8.25,1.6,6.5));
#605=CARTESIAN_POINT('',(8.25,0.,6.5));
#606=CARTESIAN_POINT('Origin',(10.5,1.6,6.5));
#607=CARTESIAN_POINT('Origin',(10.5,10.,6.5));
#608=CARTESIAN_POINT('Origin',(-10.5,0.,-6.5));
#609=CARTESIAN_POINT('',(-12.75,10.,-6.5));
#610=CARTESIAN_POINT('Origin',(-10.5,10.,-6.5));
#611=CARTESIAN_POINT('',(-12.75,1.6,-6.5));
#612=CARTESIAN_POINT('',(-12.75,0.,-6.5));
#613=CARTESIAN_POINT('Origin',(-10.5,1.6,-6.5));
#614=CARTESIAN_POINT('Origin',(-10.5,10.,-6.5));
#615=CARTESIAN_POINT('Origin',(10.5,0.,-6.5));
#616=CARTESIAN_POINT('',(8.25,10.,-6.5));
#617=CARTESIAN_POINT('Origin',(10.5,10.,-6.5));
#618=CARTESIAN_POINT('',(8.25,1.6,-6.5));
#619=CARTESIAN_POINT('',(8.25,0.,-6.5));
#620=CARTESIAN_POINT('Origin',(10.5,1.6,-6.5));
#621=CARTESIAN_POINT('Origin',(10.5,10.,-6.5));
#622=CARTESIAN_POINT('Origin',(-7.5,0.,9.));
#623=CARTESIAN_POINT('',(-7.5,0.,4.));
#624=CARTESIAN_POINT('',(-7.5,0.,9.));
#625=CARTESIAN_POINT('',(-7.5,0.,4.));
#626=CARTESIAN_POINT('',(-7.5,1.6,4.));
#627=CARTESIAN_POINT('',(-7.5,0.,4.));
#628=CARTESIAN_POINT('',(-7.5,1.6,9.));
#629=CARTESIAN_POINT('',(-7.5,1.6,4.));
#630=CARTESIAN_POINT('',(-7.5,0.,9.));
#631=CARTESIAN_POINT('Origin',(-13.,0.,9.));
#632=CARTESIAN_POINT('',(-13.,0.,9.));
#633=CARTESIAN_POINT('',(13.,0.,9.));
#634=CARTESIAN_POINT('',(-13.,1.6,9.));
#635=CARTESIAN_POINT('',(13.,1.6,9.));
#636=CARTESIAN_POINT('',(-13.,0.,9.));
#637=CARTESIAN_POINT('Origin',(-13.,0.,-9.));
#638=CARTESIAN_POINT('',(-13.,0.,-9.));
#639=CARTESIAN_POINT('',(-13.,0.,9.));
#640=CARTESIAN_POINT('',(-13.,1.6,-9.));
#641=CARTESIAN_POINT('',(-13.,1.6,9.));
#642=CARTESIAN_POINT('',(-13.,0.,-9.));
#643=CARTESIAN_POINT('Origin',(13.,0.,-9.));
#644=CARTESIAN_POINT('',(13.,0.,-9.));
#645=CARTESIAN_POINT('',(-13.,0.,-9.));
#646=CARTESIAN_POINT('',(13.,1.6,-9.));
#647=CARTESIAN_POINT('',(-13.,1.6,-9.));
#648=CARTESIAN_POINT('',(13.,0.,-9.));
#649=CARTESIAN_POINT('Origin',(13.,0.,9.));
#650=CARTESIAN_POINT('',(13.,0.,9.));
#651=CARTESIAN_POINT('',(13.,0.,-9.));
#652=CARTESIAN_POINT('',(13.,1.6,9.));
#653=CARTESIAN_POINT('',(13.,1.6,-9.));
#654=CARTESIAN_POINT('',(13.,0.,9.));
#655=CARTESIAN_POINT('Origin',(7.5,0.,9.));
#656=CARTESIAN_POINT('',(7.5,0.,9.));
#657=CARTESIAN_POINT('',(13.,0.,9.));
#658=CARTESIAN_POINT('',(7.5,1.6,9.));
#659=CARTESIAN_POINT('',(13.,1.6,9.));
#660=CARTESIAN_POINT('',(7.5,0.,9.));
#661=CARTESIAN_POINT('Origin',(7.5,0.,4.));
#662=CARTESIAN_POINT('',(7.5,0.,4.));
#663=CARTESIAN_POINT('',(7.5,0.,9.));
#664=CARTESIAN_POINT('',(7.5,1.6,4.));
#665=CARTESIAN_POINT('',(7.5,1.6,9.));
#666=CARTESIAN_POINT('',(7.5,0.,4.));
#667=CARTESIAN_POINT('Origin',(-7.5,0.,4.));
#668=CARTESIAN_POINT('',(7.5,0.,4.));
#669=CARTESIAN_POINT('',(7.5,1.6,4.));
#670=CARTESIAN_POINT('Origin',(0.,1.6,0.));
#671=CARTESIAN_POINT('Origin',(0.,0.,0.));
#672=UNCERTAINTY_MEASURE_WITH_UNIT(LENGTH_MEASURE(0.01),#676,
'DISTANCE_ACCURACY_VALUE',
'Maximum model space distance between geometric entities at asserted c
onnectivities');
#673=UNCERTAINTY_MEASURE_WITH_UNIT(LENGTH_MEASURE(0.01),#676,
'DISTANCE_ACCURACY_VALUE',
'Maximum model space distance between geometric entities at asserted c
onnectivities');
#674=(
GEOMETRIC_REPRESENTATION_CONTEXT(3)
GLOBAL_UNCERTAINTY_ASSIGNED_CONTEXT((#672))
GLOBAL_UNIT_ASSIGNED_CONTEXT((#676,#678,#679))
REPRESENTATION_CONTEXT('','3D')
);
#675=(
GEOMETRIC_REPRESENTATION_CONTEXT(3)
GLOBAL_UNCERTAINTY_ASSIGNED_CONTEXT((#673))
GLOBAL_UNIT_ASSIGNED_CONTEXT((#676,#678,#679))
REPRESENTATION_CONTEXT('','3D')
);
#676=(
LENGTH_UNIT()
NAMED_UNIT(*)
SI_UNIT(.MILLI.,.METRE.)
);
#677=(
LENGTH_UNIT()
NAMED_UNIT(*)
SI_UNIT($,.METRE.)
);
#678=(
NAMED_UNIT(*)
PLANE_ANGLE_UNIT()
SI_UNIT($,.RADIAN.)
);
#679=(
NAMED_UNIT(*)
SI_UNIT($,.STERADIAN.)
SOLID_ANGLE_UNIT()
);
#680=SHAPE_DEFINITION_REPRESENTATION(#681,#682);
#681=PRODUCT_DEFINITION_SHAPE('',$,#684);
#682=SHAPE_REPRESENTATION('',(#404),#674);
#683=PRODUCT_DEFINITION_CONTEXT('part definition',#688,'design');
#684=PRODUCT_DEFINITION('SGP30 SHT40 Mount','SGP30 SHT40 Mount v2',#685,
#683);
#685=PRODUCT_DEFINITION_FORMATION('',$,#690);
#686=PRODUCT_RELATED_PRODUCT_CATEGORY('SGP30 SHT40 Mount v2',
'SGP30 SHT40 Mount v2',(#690));
#687=APPLICATION_PROTOCOL_DEFINITION('international standard',
'automotive_design',2009,#688);
#688=APPLICATION_CONTEXT(
'Core Data for Automotive Mechanical Design Process');
#689=PRODUCT_CONTEXT('part definition',#688,'mechanical');
#690=PRODUCT('SGP30 SHT40 Mount','SGP30 SHT40 Mount v2',
'(c) 2026 BionicBone. License: CERN-OHL-W-2.0. Source: github.com/bion
icbone/Workshop-Environment-Monitor',(#689));
#691=PRESENTATION_STYLE_ASSIGNMENT((#692));
#692=SURFACE_STYLE_USAGE(.BOTH.,#693);
#693=SURFACE_SIDE_STYLE('',(#694));
#694=SURFACE_STYLE_FILL_AREA(#695);
#695=FILL_AREA_STYLE('Steel - Satin',(#696));
#696=FILL_AREA_STYLE_COLOUR('Steel - Satin',#697);
#697=COLOUR_RGB('Steel - Satin',0.627450980392157,0.627450980392157,0.627450980392157);
ENDSEC;
END-ISO-10303-21;
