ISO-10303-21;
HEADER;
/* Generated by software containing ST-Developer
 * from STEP Tools, Inc. (www.steptools.com) 
 */

FILE_DESCRIPTION(
/* description */ (
'(c) 2026 BionicBone. License: CERN-OHL-W-2.0. Source: github.com/bion
icbone/Workshop-Environment-Monitor'),
/* implementation_level */ '2;1');

FILE_NAME(
/* name */ 'WEM Display Fixing v8.step',
/* time_stamp */ '2026-07-26T15:38:07+01:00',
/* author */ (''),
/* organization */ (''),
/* preprocessor_version */ 'ST-DEVELOPER v20.1',
/* originating_system */ 'Autodesk Translation Framework v15.8.0.0',
/* authorisation */ '');

FILE_SCHEMA (('AUTOMOTIVE_DESIGN { 1 0 10303 214 3 1 1 }'));
ENDSEC;

DATA;
#10=MECHANICAL_DESIGN_GEOMETRIC_PRESENTATION_REPRESENTATION('',(#13),#327);
#11=SHAPE_REPRESENTATION_RELATIONSHIP('SRR','None',#334,#12);
#12=ADVANCED_BREP_SHAPE_REPRESENTATION('',(#14),#326);
#13=STYLED_ITEM('',(#343),#14);
#14=MANIFOLD_SOLID_BREP('Body1',#187);
#15=FACE_BOUND('',#42,.T.);
#16=FACE_BOUND('',#44,.T.);
#17=PLANE('',#204);
#18=PLANE('',#208);
#19=PLANE('',#209);
#20=PLANE('',#213);
#21=PLANE('',#217);
#22=PLANE('',#218);
#23=FACE_OUTER_BOUND('',#33,.T.);
#24=FACE_OUTER_BOUND('',#34,.T.);
#25=FACE_OUTER_BOUND('',#35,.T.);
#26=FACE_OUTER_BOUND('',#36,.T.);
#27=FACE_OUTER_BOUND('',#37,.T.);
#28=FACE_OUTER_BOUND('',#38,.T.);
#29=FACE_OUTER_BOUND('',#39,.T.);
#30=FACE_OUTER_BOUND('',#40,.T.);
#31=FACE_OUTER_BOUND('',#41,.T.);
#32=FACE_OUTER_BOUND('',#43,.T.);
#33=EDGE_LOOP('',(#125,#126,#127,#128));
#34=EDGE_LOOP('',(#129,#130,#131,#132));
#35=EDGE_LOOP('',(#133,#134,#135,#136));
#36=EDGE_LOOP('',(#137,#138,#139,#140));
#37=EDGE_LOOP('',(#141,#142,#143,#144));
#38=EDGE_LOOP('',(#145,#146,#147,#148));
#39=EDGE_LOOP('',(#149,#150,#151,#152));
#40=EDGE_LOOP('',(#153,#154,#155,#156));
#41=EDGE_LOOP('',(#157,#158,#159,#160,#161,#162,#163));
#42=EDGE_LOOP('',(#164));
#43=EDGE_LOOP('',(#165,#166,#167,#168,#169,#170,#171));
#44=EDGE_LOOP('',(#172));
#45=LINE('',#278,#61);
#46=LINE('',#283,#62);
#47=LINE('',#285,#63);
#48=LINE('',#287,#64);
#49=LINE('',#288,#65);
#50=LINE('',#294,#66);
#51=LINE('',#297,#67);
#52=LINE('',#299,#68);
#53=LINE('',#300,#69);
#54=LINE('',#303,#70);
#55=LINE('',#305,#71);
#56=LINE('',#306,#72);
#57=LINE('',#312,#73);
#58=LINE('',#315,#74);
#59=LINE('',#317,#75);
#60=LINE('',#318,#76);
#61=VECTOR('',#225,1.5);
#62=VECTOR('',#230,10.);
#63=VECTOR('',#231,10.);
#64=VECTOR('',#232,10.);
#65=VECTOR('',#233,10.);
#66=VECTOR('',#240,10.);
#67=VECTOR('',#243,10.);
#68=VECTOR('',#244,10.);
#69=VECTOR('',#245,10.);
#70=VECTOR('',#248,10.);
#71=VECTOR('',#249,10.);
#72=VECTOR('',#250,10.);
#73=VECTOR('',#257,10.);
#74=VECTOR('',#260,10.);
#75=VECTOR('',#261,10.);
#76=VECTOR('',#262,10.);
#77=CIRCLE('',#202,1.5);
#78=CIRCLE('',#203,1.5);
#79=CIRCLE('',#206,5.35);
#80=CIRCLE('',#207,5.35);
#81=CIRCLE('',#211,5.35);
#82=CIRCLE('',#212,5.35);
#83=CIRCLE('',#215,4.35);
#84=CIRCLE('',#216,4.35);
#85=VERTEX_POINT('',#275);
#86=VERTEX_POINT('',#277);
#87=VERTEX_POINT('',#281);
#88=VERTEX_POINT('',#282);
#89=VERTEX_POINT('',#284);
#90=VERTEX_POINT('',#286);
#91=VERTEX_POINT('',#290);
#92=VERTEX_POINT('',#292);
#93=VERTEX_POINT('',#296);
#94=VERTEX_POINT('',#298);
#95=VERTEX_POINT('',#302);
#96=VERTEX_POINT('',#304);
#97=VERTEX_POINT('',#308);
#98=VERTEX_POINT('',#310);
#99=VERTEX_POINT('',#314);
#100=VERTEX_POINT('',#316);
#101=EDGE_CURVE('',#85,#85,#77,.T.);
#102=EDGE_CURVE('',#85,#86,#45,.T.);
#103=EDGE_CURVE('',#86,#86,#78,.T.);
#104=EDGE_CURVE('',#87,#88,#46,.T.);
#105=EDGE_CURVE('',#87,#89,#47,.T.);
#106=EDGE_CURVE('',#90,#89,#48,.T.);
#107=EDGE_CURVE('',#88,#90,#49,.T.);
#108=EDGE_CURVE('',#91,#88,#79,.T.);
#109=EDGE_CURVE('',#92,#90,#80,.T.);
#110=EDGE_CURVE('',#91,#92,#50,.T.);
#111=EDGE_CURVE('',#93,#91,#51,.T.);
#112=EDGE_CURVE('',#94,#92,#52,.T.);
#113=EDGE_CURVE('',#93,#94,#53,.T.);
#114=EDGE_CURVE('',#95,#93,#54,.T.);
#115=EDGE_CURVE('',#96,#94,#55,.T.);
#116=EDGE_CURVE('',#95,#96,#56,.T.);
#117=EDGE_CURVE('',#97,#95,#81,.T.);
#118=EDGE_CURVE('',#98,#96,#82,.T.);
#119=EDGE_CURVE('',#97,#98,#57,.T.);
#120=EDGE_CURVE('',#99,#97,#58,.T.);
#121=EDGE_CURVE('',#100,#98,#59,.T.);
#122=EDGE_CURVE('',#99,#100,#60,.T.);
#123=EDGE_CURVE('',#87,#99,#83,.T.);
#124=EDGE_CURVE('',#89,#100,#84,.T.);
#125=ORIENTED_EDGE('',*,*,#101,.F.);
#126=ORIENTED_EDGE('',*,*,#102,.T.);
#127=ORIENTED_EDGE('',*,*,#103,.T.);
#128=ORIENTED_EDGE('',*,*,#102,.F.);
#129=ORIENTED_EDGE('',*,*,#104,.F.);
#130=ORIENTED_EDGE('',*,*,#105,.T.);
#131=ORIENTED_EDGE('',*,*,#106,.F.);
#132=ORIENTED_EDGE('',*,*,#107,.F.);
#133=ORIENTED_EDGE('',*,*,#108,.T.);
#134=ORIENTED_EDGE('',*,*,#107,.T.);
#135=ORIENTED_EDGE('',*,*,#109,.F.);
#136=ORIENTED_EDGE('',*,*,#110,.F.);
#137=ORIENTED_EDGE('',*,*,#111,.T.);
#138=ORIENTED_EDGE('',*,*,#110,.T.);
#139=ORIENTED_EDGE('',*,*,#112,.F.);
#140=ORIENTED_EDGE('',*,*,#113,.F.);
#141=ORIENTED_EDGE('',*,*,#114,.T.);
#142=ORIENTED_EDGE('',*,*,#113,.T.);
#143=ORIENTED_EDGE('',*,*,#115,.F.);
#144=ORIENTED_EDGE('',*,*,#116,.F.);
#145=ORIENTED_EDGE('',*,*,#117,.T.);
#146=ORIENTED_EDGE('',*,*,#116,.T.);
#147=ORIENTED_EDGE('',*,*,#118,.F.);
#148=ORIENTED_EDGE('',*,*,#119,.F.);
#149=ORIENTED_EDGE('',*,*,#120,.T.);
#150=ORIENTED_EDGE('',*,*,#119,.T.);
#151=ORIENTED_EDGE('',*,*,#121,.F.);
#152=ORIENTED_EDGE('',*,*,#122,.F.);
#153=ORIENTED_EDGE('',*,*,#123,.T.);
#154=ORIENTED_EDGE('',*,*,#122,.T.);
#155=ORIENTED_EDGE('',*,*,#124,.F.);
#156=ORIENTED_EDGE('',*,*,#105,.F.);
#157=ORIENTED_EDGE('',*,*,#124,.T.);
#158=ORIENTED_EDGE('',*,*,#121,.T.);
#159=ORIENTED_EDGE('',*,*,#118,.T.);
#160=ORIENTED_EDGE('',*,*,#115,.T.);
#161=ORIENTED_EDGE('',*,*,#112,.T.);
#162=ORIENTED_EDGE('',*,*,#109,.T.);
#163=ORIENTED_EDGE('',*,*,#106,.T.);
#164=ORIENTED_EDGE('',*,*,#101,.T.);
#165=ORIENTED_EDGE('',*,*,#123,.F.);
#166=ORIENTED_EDGE('',*,*,#104,.T.);
#167=ORIENTED_EDGE('',*,*,#108,.F.);
#168=ORIENTED_EDGE('',*,*,#111,.F.);
#169=ORIENTED_EDGE('',*,*,#114,.F.);
#170=ORIENTED_EDGE('',*,*,#117,.F.);
#171=ORIENTED_EDGE('',*,*,#120,.F.);
#172=ORIENTED_EDGE('',*,*,#103,.F.);
#173=CYLINDRICAL_SURFACE('',#201,1.5);
#174=CYLINDRICAL_SURFACE('',#205,5.35);
#175=CYLINDRICAL_SURFACE('',#210,5.35);
#176=CYLINDRICAL_SURFACE('',#214,4.35);
#177=ADVANCED_FACE('',(#23),#173,.F.);
#178=ADVANCED_FACE('',(#24),#17,.T.);
#179=ADVANCED_FACE('',(#25),#174,.T.);
#180=ADVANCED_FACE('',(#26),#18,.T.);
#181=ADVANCED_FACE('',(#27),#19,.T.);
#182=ADVANCED_FACE('',(#28),#175,.T.);
#183=ADVANCED_FACE('',(#29),#20,.T.);
#184=ADVANCED_FACE('',(#30),#176,.T.);
#185=ADVANCED_FACE('',(#31,#15),#21,.T.);
#186=ADVANCED_FACE('',(#32,#16),#22,.F.);
#187=CLOSED_SHELL('',(#177,#178,#179,#180,#181,#182,#183,#184,#185,#186));
#188=DERIVED_UNIT_ELEMENT(#190,1.);
#189=DERIVED_UNIT_ELEMENT(#329,-3.);
#190=(
MASS_UNIT()
NAMED_UNIT(*)
SI_UNIT(.KILO.,.GRAM.)
);
#191=DERIVED_UNIT((#188,#189));
#192=MEASURE_REPRESENTATION_ITEM('density measure',
POSITIVE_RATIO_MEASURE(7850.),#191);
#193=PROPERTY_DEFINITION_REPRESENTATION(#198,#195);
#194=PROPERTY_DEFINITION_REPRESENTATION(#199,#196);
#195=REPRESENTATION('material name',(#197),#326);
#196=REPRESENTATION('density',(#192),#326);
#197=DESCRIPTIVE_REPRESENTATION_ITEM('Steel','Steel');
#198=PROPERTY_DEFINITION('material property','material name',#336);
#199=PROPERTY_DEFINITION('material property','density of part',#336);
#200=AXIS2_PLACEMENT_3D('',#273,#219,#220);
#201=AXIS2_PLACEMENT_3D('',#274,#221,#222);
#202=AXIS2_PLACEMENT_3D('',#276,#223,#224);
#203=AXIS2_PLACEMENT_3D('',#279,#226,#227);
#204=AXIS2_PLACEMENT_3D('',#280,#228,#229);
#205=AXIS2_PLACEMENT_3D('',#289,#234,#235);
#206=AXIS2_PLACEMENT_3D('',#291,#236,#237);
#207=AXIS2_PLACEMENT_3D('',#293,#238,#239);
#208=AXIS2_PLACEMENT_3D('',#295,#241,#242);
#209=AXIS2_PLACEMENT_3D('',#301,#246,#247);
#210=AXIS2_PLACEMENT_3D('',#307,#251,#252);
#211=AXIS2_PLACEMENT_3D('',#309,#253,#254);
#212=AXIS2_PLACEMENT_3D('',#311,#255,#256);
#213=AXIS2_PLACEMENT_3D('',#313,#258,#259);
#214=AXIS2_PLACEMENT_3D('',#319,#263,#264);
#215=AXIS2_PLACEMENT_3D('',#320,#265,#266);
#216=AXIS2_PLACEMENT_3D('',#321,#267,#268);
#217=AXIS2_PLACEMENT_3D('',#322,#269,#270);
#218=AXIS2_PLACEMENT_3D('',#323,#271,#272);
#219=DIRECTION('axis',(0.,0.,1.));
#220=DIRECTION('refdir',(1.,0.,0.));
#221=DIRECTION('center_axis',(0.,1.,0.));
#222=DIRECTION('ref_axis',(1.,0.,0.));
#223=DIRECTION('center_axis',(0.,-1.,0.));
#224=DIRECTION('ref_axis',(1.,0.,0.));
#225=DIRECTION('',(0.,-1.,0.));
#226=DIRECTION('center_axis',(0.,-1.,0.));
#227=DIRECTION('ref_axis',(1.,0.,0.));
#228=DIRECTION('center_axis',(0.707106781186547,0.,0.707106781186548));
#229=DIRECTION('ref_axis',(0.707106781186548,0.,-0.707106781186547));
#230=DIRECTION('',(-0.707106781186548,0.,0.707106781186547));
#231=DIRECTION('',(0.,1.,0.));
#232=DIRECTION('',(0.707106781186548,0.,-0.707106781186547));
#233=DIRECTION('',(0.,1.,0.));
#234=DIRECTION('center_axis',(0.,1.,0.));
#235=DIRECTION('ref_axis',(1.,0.,0.));
#236=DIRECTION('center_axis',(0.,1.,0.));
#237=DIRECTION('ref_axis',(1.,0.,0.));
#238=DIRECTION('center_axis',(0.,1.,0.));
#239=DIRECTION('ref_axis',(1.,0.,0.));
#240=DIRECTION('',(0.,1.,0.));
#241=DIRECTION('center_axis',(-1.,0.,0.));
#242=DIRECTION('ref_axis',(0.,0.,1.));
#243=DIRECTION('',(0.,0.,1.));
#244=DIRECTION('',(0.,0.,1.));
#245=DIRECTION('',(0.,1.,0.));
#246=DIRECTION('center_axis',(0.,0.,-1.));
#247=DIRECTION('ref_axis',(-1.,0.,0.));
#248=DIRECTION('',(-1.,0.,0.));
#249=DIRECTION('',(-1.,0.,0.));
#250=DIRECTION('',(0.,1.,0.));
#251=DIRECTION('center_axis',(0.,1.,0.));
#252=DIRECTION('ref_axis',(1.,0.,0.));
#253=DIRECTION('center_axis',(0.,1.,0.));
#254=DIRECTION('ref_axis',(1.,0.,0.));
#255=DIRECTION('center_axis',(0.,1.,0.));
#256=DIRECTION('ref_axis',(1.,0.,0.));
#257=DIRECTION('',(0.,1.,0.));
#258=DIRECTION('center_axis',(0.707106781186547,0.,0.707106781186548));
#259=DIRECTION('ref_axis',(0.707106781186548,0.,-0.707106781186547));
#260=DIRECTION('',(0.707106781186548,0.,-0.707106781186547));
#261=DIRECTION('',(0.707106781186548,0.,-0.707106781186547));
#262=DIRECTION('',(0.,1.,0.));
#263=DIRECTION('center_axis',(0.,1.,0.));
#264=DIRECTION('ref_axis',(1.,0.,0.));
#265=DIRECTION('center_axis',(0.,1.,0.));
#266=DIRECTION('ref_axis',(1.,0.,0.));
#267=DIRECTION('center_axis',(0.,1.,0.));
#268=DIRECTION('ref_axis',(1.,0.,0.));
#269=DIRECTION('center_axis',(0.,1.,0.));
#270=DIRECTION('ref_axis',(1.,0.,0.));
#271=DIRECTION('center_axis',(0.,1.,0.));
#272=DIRECTION('ref_axis',(1.,0.,0.));
#273=CARTESIAN_POINT('',(0.,0.,0.));
#274=CARTESIAN_POINT('Origin',(0.,0.,0.));
#275=CARTESIAN_POINT('',(-1.5,10.6,1.83697019872103E-16));
#276=CARTESIAN_POINT('Origin',(0.,10.6,0.));
#277=CARTESIAN_POINT('',(-1.5,0.,1.83697019872103E-16));
#278=CARTESIAN_POINT('',(-1.5,0.,1.83697019872103E-16));
#279=CARTESIAN_POINT('Origin',(0.,0.,0.));
#280=CARTESIAN_POINT('Origin',(-3.78302127934803,0.,3.78302127934803));
#281=CARTESIAN_POINT('',(-3.07591449816148,0.,3.07591449816148));
#282=CARTESIAN_POINT('',(-3.78302127934803,0.,3.78302127934803));
#283=CARTESIAN_POINT('',(0.,0.,0.));
#284=CARTESIAN_POINT('',(-3.07591449816148,10.6,3.07591449816148));
#285=CARTESIAN_POINT('',(-3.07591449816148,0.,3.07591449816148));
#286=CARTESIAN_POINT('',(-3.78302127934803,10.6,3.78302127934803));
#287=CARTESIAN_POINT('',(0.,10.6,0.));
#288=CARTESIAN_POINT('',(-3.78302127934803,0.,3.78302127934803));
#289=CARTESIAN_POINT('Origin',(0.,0.,0.));
#290=CARTESIAN_POINT('',(-5.35,0.,-6.55186037543834E-16));
#291=CARTESIAN_POINT('Origin',(0.,0.,0.));
#292=CARTESIAN_POINT('',(-5.35,10.6,-6.55186037543834E-16));
#293=CARTESIAN_POINT('Origin',(0.,10.6,0.));
#294=CARTESIAN_POINT('',(-5.35,0.,-6.55186037543834E-16));
#295=CARTESIAN_POINT('Origin',(-5.35,0.,-5.35));
#296=CARTESIAN_POINT('',(-5.35,0.,-5.35));
#297=CARTESIAN_POINT('',(-5.35,0.,-5.35));
#298=CARTESIAN_POINT('',(-5.35,10.6,-5.35));
#299=CARTESIAN_POINT('',(-5.35,10.6,-5.35));
#300=CARTESIAN_POINT('',(-5.35,0.,-5.35));
#301=CARTESIAN_POINT('Origin',(0.,0.,-5.35));
#302=CARTESIAN_POINT('',(3.27593018771917E-16,0.,-5.35));
#303=CARTESIAN_POINT('',(0.,0.,-5.35));
#304=CARTESIAN_POINT('',(2.77555756156289E-16,10.6,-5.35));
#305=CARTESIAN_POINT('',(0.,10.6,-5.35));
#306=CARTESIAN_POINT('',(3.27593018771917E-16,0.,-5.35));
#307=CARTESIAN_POINT('Origin',(0.,0.,0.));
#308=CARTESIAN_POINT('',(3.78302127934803,0.,-3.78302127934803));
#309=CARTESIAN_POINT('Origin',(0.,0.,0.));
#310=CARTESIAN_POINT('',(3.78302127934803,10.6,-3.78302127934803));
#311=CARTESIAN_POINT('Origin',(0.,10.6,0.));
#312=CARTESIAN_POINT('',(3.78302127934803,0.,-3.78302127934803));
#313=CARTESIAN_POINT('Origin',(3.07591449816148,0.,-3.07591449816148));
#314=CARTESIAN_POINT('',(3.07591449816148,0.,-3.07591449816148));
#315=CARTESIAN_POINT('',(0.,0.,0.));
#316=CARTESIAN_POINT('',(3.07591449816148,10.6,-3.07591449816148));
#317=CARTESIAN_POINT('',(0.,10.6,0.));
#318=CARTESIAN_POINT('',(3.07591449816148,0.,-3.07591449816148));
#319=CARTESIAN_POINT('Origin',(0.,0.,0.));
#320=CARTESIAN_POINT('Origin',(0.,0.,0.));
#321=CARTESIAN_POINT('Origin',(0.,10.6,0.));
#322=CARTESIAN_POINT('Origin',(-0.5,10.6,-0.5));
#323=CARTESIAN_POINT('Origin',(-0.5,0.,-0.5));
#324=UNCERTAINTY_MEASURE_WITH_UNIT(LENGTH_MEASURE(0.01),#328,
'DISTANCE_ACCURACY_VALUE',
'Maximum model space distance between geometric entities at asserted c
onnectivities');
#325=UNCERTAINTY_MEASURE_WITH_UNIT(LENGTH_MEASURE(0.01),#328,
'DISTANCE_ACCURACY_VALUE',
'Maximum model space distance between geometric entities at asserted c
onnectivities');
#326=(
GEOMETRIC_REPRESENTATION_CONTEXT(3)
GLOBAL_UNCERTAINTY_ASSIGNED_CONTEXT((#324))
GLOBAL_UNIT_ASSIGNED_CONTEXT((#328,#330,#331))
REPRESENTATION_CONTEXT('','3D')
);
#327=(
GEOMETRIC_REPRESENTATION_CONTEXT(3)
GLOBAL_UNCERTAINTY_ASSIGNED_CONTEXT((#325))
GLOBAL_UNIT_ASSIGNED_CONTEXT((#328,#330,#331))
REPRESENTATION_CONTEXT('','3D')
);
#328=(
LENGTH_UNIT()
NAMED_UNIT(*)
SI_UNIT(.MILLI.,.METRE.)
);
#329=(
LENGTH_UNIT()
NAMED_UNIT(*)
SI_UNIT($,.METRE.)
);
#330=(
NAMED_UNIT(*)
PLANE_ANGLE_UNIT()
SI_UNIT($,.RADIAN.)
);
#331=(
NAMED_UNIT(*)
SI_UNIT($,.STERADIAN.)
SOLID_ANGLE_UNIT()
);
#332=SHAPE_DEFINITION_REPRESENTATION(#333,#334);
#333=PRODUCT_DEFINITION_SHAPE('',$,#336);
#334=SHAPE_REPRESENTATION('',(#200),#326);
#335=PRODUCT_DEFINITION_CONTEXT('part definition',#340,'design');
#336=PRODUCT_DEFINITION('WEM Display Fixing','WEM Display Fixing v8',#337,
#335);
#337=PRODUCT_DEFINITION_FORMATION('',$,#342);
#338=PRODUCT_RELATED_PRODUCT_CATEGORY('WEM Display Fixing v8',
'WEM Display Fixing v8',(#342));
#339=APPLICATION_PROTOCOL_DEFINITION('international standard',
'automotive_design',2009,#340);
#340=APPLICATION_CONTEXT(
'Core Data for Automotive Mechanical Design Process');
#341=PRODUCT_CONTEXT('part definition',#340,'mechanical');
#342=PRODUCT('WEM Display Fixing','WEM Display Fixing v8',
'(c) 2026 BionicBone. License: CERN-OHL-W-2.0. Source: github.com/bion
icbone/Workshop-Environment-Monitor',(#341));
#343=PRESENTATION_STYLE_ASSIGNMENT((#344));
#344=SURFACE_STYLE_USAGE(.BOTH.,#345);
#345=SURFACE_SIDE_STYLE('',(#346));
#346=SURFACE_STYLE_FILL_AREA(#347);
#347=FILL_AREA_STYLE('Steel - Satin',(#348));
#348=FILL_AREA_STYLE_COLOUR('Steel - Satin',#349);
#349=COLOUR_RGB('Steel - Satin',0.627450980392157,0.627450980392157,0.627450980392157);
ENDSEC;
END-ISO-10303-21;
